<svg xmlns="http://www.w3.org/2000/svg" xmlns:xlink="http://www.w3.org/1999/xlink" contentstyletype="text/css" data-diagram-type="DESCRIPTION" height="1536px" preserveAspectRatio="none" style="width:688px;height:1536px;background:#FFFFFF;" version="1.1" viewBox="0 0 688 1536" width="688px" zoomAndPan="magnify" transform="scale(0.75)" transform-origin="0 0"><defs/><g><!--cluster Health?Care Platform--><g class="cluster" data-entity="Health‑Care Platform" data-source-line="13" data-uid="ent0009" id="cluster_Health‑Care Platform"><rect fill="none" height="1523" rx="2.5" ry="2.5" style="stroke:#181818;stroke-width:1;" width="477.02" x="205.34" y="7"/><text fill="#000000" font-family="sans-serif" font-size="14" font-weight="bold" lengthAdjust="spacing" textLength="167.3232" x="360.1884" y="21.9951">Health‑Care Platform</text></g><g class="entity" data-entity="UC1" data-source-line="16" data-uid="ent0010" id="entity_UC1"><ellipse cx="332.3312" cy="61.9962" fill="#ADD8E6" rx="86.9812" ry="19.7962" style="stroke:#181818;stroke-width:0.5;"/><text fill="#000000" font-family="sans-serif" font-size="14" lengthAdjust="spacing" textLength="134.873" x="264.8947" y="64.8429">Create prescription</text></g><g class="entity" data-entity="UC2" data-source-line="17" data-uid="ent0011" id="entity_UC2"><ellipse cx="332.3283" cy="135.0037" fill="#ADD8E6" rx="81.2683" ry="18.6537" style="stroke:#181818;stroke-width:0.5;"/><text fill="#000000" font-family="sans-serif" font-size="14" lengthAdjust="spacing" textLength="121.5771" x="270.3415" y="138.2432">View prescription</text></g><g class="entity" data-entity="UC3" data-source-line="18" data-uid="ent0012" id="entity_UC3"><ellipse cx="332.3343" cy="209.0029" fill="#ADD8E6" rx="92.0643" ry="20.8129" style="stroke:#181818;stroke-width:0.5;"/><text fill="#000000" font-family="sans-serif" font-size="14" lengthAdjust="spacing" textLength="146.3984" x="259.135" y="211.8495">Transfer prescription</text></g><g class="entity" data-entity="UC4" data-source-line="19" data-uid="ent0013" id="entity_UC4"><ellipse cx="332.3314" cy="289.0003" fill="#ADD8E6" rx="109.1014" ry="24.2203" style="stroke:#181818;stroke-width:0.5;"/><text fill="#000000" font-family="sans-serif" font-size="14" lengthAdjust="spacing" textLength="183.9346" x="240.3642" y="291.847">View personal information</text></g><g class="entity" data-entity="UC5" data-source-line="20" data-uid="ent0014" id="entity_UC5"><ellipse cx="332.3254" cy="371.9991" fill="#ADD8E6" rx="106.1454" ry="23.6291" style="stroke:#181818;stroke-width:0.5;"/><text fill="#000000" font-family="sans-serif" font-size="14" lengthAdjust="spacing" textLength="177.5156" x="243.5676" y="374.8458">Edit personal information</text></g><g class="entity" data-entity="UC6" data-source-line="21" data-uid="ent0015" id="entity_UC6"><ellipse cx="332.3346" cy="450.9969" fill="#ADD8E6" rx="91.6846" ry="20.7369" style="stroke:#181818;stroke-width:0.5;"/><text fill="#000000" font-family="sans-serif" font-size="14" lengthAdjust="spacing" textLength="145.5439" x="259.5626" y="453.8436">Request prescription</text></g><g class="entity" data-entity="UC7" data-source-line="22" data-uid="ent0016" id="entity_UC7"><ellipse cx="332.3253" cy="529.0031" fill="#ADD8E6" rx="97.5153" ry="21.9031" style="stroke:#181818;stroke-width:0.5;"/><text fill="#000000" font-family="sans-serif" font-size="14" lengthAdjust="spacing" textLength="158.5664" x="253.0421" y="531.8497">Schedule appointment</text></g><g class="entity" data-entity="UC8" data-source-line="23" data-uid="ent0017" id="entity_UC8"><ellipse cx="332.3253" cy="765.0011" fill="#ADD8E6" rx="93.7553" ry="21.1511" style="stroke:#181818;stroke-width:0.5;"/><text fill="#000000" font-family="sans-serif" font-size="14" lengthAdjust="spacing" textLength="150.1924" x="257.2291" y="767.8477">View medical records</text></g><g class="entity" data-entity="UC9" data-source-line="24" data-uid="ent0018" id="entity_UC9"><ellipse cx="332.3303" cy="604.9961" fill="#ADD8E6" rx="84.9803" ry="19.3961" style="stroke:#181818;stroke-width:0.5;"/><text fill="#000000" font-family="sans-serif" font-size="14" lengthAdjust="spacing" textLength="130.2793" x="267.1907" y="607.8427">Add medical notes</text></g><g class="entity" data-entity="UC10" data-source-line="25" data-uid="ent0019" id="entity_UC10"><ellipse cx="332.3347" cy="683.9989" fill="#ADD8E6" rx="110.9947" ry="24.5989" style="stroke:#181818;stroke-width:0.5;"/><text fill="#000000" font-family="sans-serif" font-size="14" lengthAdjust="spacing" textLength="188.0293" x="238.3201" y="686.8456">Synchronize mobile device</text></g><g class="entity" data-entity="UC11" data-source-line="26" data-uid="ent0020" id="entity_UC11"><ellipse cx="332.3297" cy="973.9999" fill="#ADD8E6" rx="92.2497" ry="20.8499" style="stroke:#181818;stroke-width:0.5;"/><text fill="#000000" font-family="sans-serif" font-size="14" lengthAdjust="spacing" textLength="146.8154" x="258.922" y="976.8466">Dispense medication</text></g><g class="entity" data-entity="UC12" data-source-line="27" data-uid="ent0021" id="entity_UC12"><ellipse cx="332.3311" cy="1188.0022" fill="#ADD8E6" rx="88.7111" ry="20.1422" style="stroke:#181818;stroke-width:0.5;"/><text fill="#000000" font-family="sans-serif" font-size="14" lengthAdjust="spacing" textLength="138.8174" x="262.9224" y="1190.8489">Store data centrally</text></g><g class="entity" data-entity="UC13" data-source-line="28" data-uid="ent0022" id="entity_UC13"><ellipse cx="332.3287" cy="1047.0017" fill="#ADD8E6" rx="72.5087" ry="16.9017" style="stroke:#181818;stroke-width:0.5;"/><text fill="#000000" font-family="sans-serif" font-size="14" lengthAdjust="spacing" textLength="99.5313" x="279.5631" y="1050.7493">Integrate EMR</text></g><g class="entity" data-entity="UC14" data-source-line="29" data-uid="ent0023" id="entity_UC14"><ellipse cx="332.3316" cy="1116.0003" fill="#ADD8E6" rx="71.7516" ry="16.7503" style="stroke:#181818;stroke-width:0.5;"/><text fill="#000000" font-family="sans-serif" font-size="14" lengthAdjust="spacing" textLength="97.5283" x="280.5674" y="1119.7479">Enforce GDPR</text></g><g class="entity" data-entity="UC15" data-source-line="30" data-uid="ent0024" id="entity_UC15"><ellipse cx="332.3324" cy="1494.0025" fill="#ADD8E6" rx="90.2124" ry="20.4425" style="stroke:#181818;stroke-width:0.5;"/><text fill="#000000" font-family="sans-serif" font-size="14" lengthAdjust="spacing" textLength="142.2217" x="261.2216" y="1496.8492">Manage user access</text></g><g class="entity" data-entity="UC16" data-source-line="31" data-uid="ent0025" id="entity_UC16"><ellipse cx="332.3287" cy="1419.9977" fill="#ADD8E6" rx="80.3887" ry="18.4777" style="stroke:#181818;stroke-width:0.5;"/><text fill="#000000" font-family="sans-serif" font-size="14" lengthAdjust="spacing" textLength="119.4648" x="271.0758" y="1423.335">Provide analytics</text></g><g class="entity" data-entity="UC17" data-source-line="32" data-uid="ent0026" id="entity_UC17"><ellipse cx="332.325" cy="1266.997" fill="#ADD8E6" rx="107.085" ry="23.817" style="stroke:#181818;stroke-width:0.5;"/><text fill="#000000" font-family="sans-serif" font-size="14" lengthAdjust="spacing" textLength="179.5596" x="242.5452" y="1269.8437">Record appointment time</text></g><g class="entity" data-entity="UC18" data-source-line="33" data-uid="ent0027" id="entity_UC18"><ellipse cx="332.3303" cy="1345.9981" fill="#ADD8E6" rx="89.0903" ry="20.2181" style="stroke:#181818;stroke-width:0.5;"/><text fill="#000000" font-family="sans-serif" font-size="14" lengthAdjust="spacing" textLength="139.6787" x="262.4909" y="1348.8447">Migrate legacy data</text></g><g class="entity" data-entity="UC19" data-source-line="34" data-uid="ent0028" id="entity_UC19"><ellipse cx="332.3346" cy="901.9969" fill="#ADD8E6" rx="68.9846" ry="16.1969" style="stroke:#181818;stroke-width:0.5;"/><text fill="#000000" font-family="sans-serif" font-size="14" lengthAdjust="spacing" textLength="90.0566" x="284.3063" y="905.7445">Authenticate</text></g><g class="entity" data-entity="UC20" data-source-line="35" data-uid="ent0029" id="entity_UC20"><ellipse cx="332.3254" cy="836.0021" fill="#ADD8E6" rx="60.0554" ry="14.7721" style="stroke:#181818;stroke-width:0.5;"/><text fill="#000000" font-family="sans-serif" font-size="14" lengthAdjust="spacing" textLength="66.9854" x="295.8327" y="839.7497">Authorize</text></g><g class="entity" data-entity="UC21" data-source-line="38" data-uid="ent0030" id="entity_UC21"><ellipse cx="620.3539" cy="328.9959" fill="#EAEAEA" rx="41.7539" ry="14.5959" style="stroke:#181818;stroke-width:0.5;"/><text fill="#000000" font-family="sans-serif" font-size="14" lengthAdjust="spacing" textLength="42.4648" x="596.1214" y="332.7434">Log in</text></g><g class="entity" data-entity="UC22" data-source-line="39" data-uid="ent0031" id="entity_UC22"><ellipse cx="620.3477" cy="835.9994" fill="#EAEAEA" rx="46.0177" ry="14.6494" style="stroke:#181818;stroke-width:0.5;"/><text fill="#000000" font-family="sans-serif" font-size="14" lengthAdjust="spacing" textLength="48.1797" x="593.2579" y="839.7469">Logout</text></g><!--entity Doctor--><g class="entity" data-entity="Doctor" data-source-line="4" data-uid="ent0002" id="entity_Doctor"><ellipse cx="82.1668" cy="141.35" fill="#F1F1F1" rx="8" ry="8" style="stroke:#181818;stroke-width:0.5;"/><path d="M82.1668,149.35 L82.1668,176.35 M69.1668,157.35 L95.1668,157.35 M82.1668,176.35 L69.1668,191.35 M82.1668,176.35 L95.1668,191.35" fill="none" style="stroke:#181818;stroke-width:0.5;"/><text fill="#000000" font-family="sans-serif" font-size="14" lengthAdjust="spacing" textLength="46.8535" x="58.74" y="205.8451">Doctor</text></g><!--entity Patient--><g class="entity" data-entity="Patient" data-source-line="5" data-uid="ent0003" id="entity_Patient"><ellipse cx="82.168" cy="428.35" fill="#F1F1F1" rx="8" ry="8" style="stroke:#181818;stroke-width:0.5;"/><path d="M82.168,436.35 L82.168,463.35 M69.168,444.35 L95.168,444.35 M82.168,463.35 L69.168,478.35 M82.168,463.35 L95.168,478.35" fill="none" style="stroke:#181818;stroke-width:0.5;"/><text fill="#000000" font-family="sans-serif" font-size="14" lengthAdjust="spacing" textLength="49.376" x="57.48" y="492.8451">Patient</text></g><!--entity Nurse--><g class="entity" data-entity="Nurse" data-source-line="6" data-uid="ent0004" id="entity_Nurse"><ellipse cx="82.1744" cy="674.35" fill="#F1F1F1" rx="8" ry="8" style="stroke:#181818;stroke-width:0.5;"/><path d="M82.1744,682.35 L82.1744,709.35 M69.1744,690.35 L95.1744,690.35 M82.1744,709.35 L69.1744,724.35 M82.1744,709.35 L95.1744,724.35" fill="none" style="stroke:#181818;stroke-width:0.5;"/><text fill="#000000" font-family="sans-serif" font-size="14" lengthAdjust="spacing" textLength="41.0088" x="61.67" y="738.8451">Nurse</text></g><!--entity Receptionist--><g class="entity" data-entity="Receptionist" data-source-line="7" data-uid="ent0005" id="entity_Receptionist"><ellipse cx="82.1742" cy="859.35" fill="#F1F1F1" rx="8" ry="8" style="stroke:#181818;stroke-width:0.5;"/><path d="M82.1742,867.35 L82.1742,894.35 M69.1742,875.35 L95.1742,875.35 M82.1742,894.35 L69.1742,909.35 M82.1742,894.35 L95.1742,909.35" fill="none" style="stroke:#181818;stroke-width:0.5;"/><text fill="#000000" font-family="sans-serif" font-size="14" lengthAdjust="spacing" textLength="87.0283" x="38.66" y="923.8451">Receptionist</text></g><!--entity Pharmacist--><g class="entity" data-entity="Pharmacist" data-source-line="8" data-uid="ent0006" id="entity_Pharmacist"><ellipse cx="82.1687" cy="1002.35" fill="#F1F1F1" rx="8" ry="8" style="stroke:#181818;stroke-width:0.5;"/><path d="M82.1687,1010.35 L82.1687,1037.35 M69.1687,1018.35 L95.1687,1018.35 M82.1687,1037.35 L69.1687,1052.35 M82.1687,1037.35 L95.1687,1052.35" fill="none" style="stroke:#181818;stroke-width:0.5;"/><text fill="#000000" font-family="sans-serif" font-size="14" lengthAdjust="spacing" textLength="78.2373" x="43.05" y="1066.8451">Pharmacist</text></g><!--entity SysAdmin--><g class="entity" data-entity="SysAdmin" data-source-line="9" data-uid="ent0007" id="entity_SysAdmin"><ellipse cx="82.1694" cy="1350.35" fill="#F1F1F1" rx="8" ry="8" style="stroke:#181818;stroke-width:0.5;"/><path d="M82.1694,1358.35 L82.1694,1385.35 M69.1694,1366.35 L95.1694,1366.35 M82.1694,1385.35 L69.1694,1400.35 M82.1694,1385.35 L95.1694,1400.35" fill="none" style="stroke:#181818;stroke-width:0.5;"/><text fill="#000000" font-family="sans-serif" font-size="14" lengthAdjust="spacing" textLength="152.3389" x="6" y="1414.8451">System Administrator</text></g><!--entity Analyst--><g class="entity" data-entity="Analyst" data-source-line="10" data-uid="ent0008" id="entity_Analyst"><ellipse cx="82.1688" cy="1207.35" fill="#F1F1F1" rx="8" ry="8" style="stroke:#181818;stroke-width:0.5;"/><path d="M82.1688,1215.35 L82.1688,1242.35 M69.1688,1223.35 L95.1688,1223.35 M82.1688,1242.35 L69.1688,1257.35 M82.1688,1242.35 L95.1688,1257.35" fill="none" style="stroke:#181818;stroke-width:0.5;"/><text fill="#000000" font-family="sans-serif" font-size="14" lengthAdjust="spacing" textLength="115.9375" x="24.2" y="1271.8451">Systems Analyst</text></g><!--link Doctor to UC1--><g class="link" data-entity-1="Doctor" data-entity-2="UC1" data-source-line="43" data-uid="lnk32" id="link_Doctor_UC1"><path d="M105.73,146.44 C125.51,126.54 156.07,99.51 188.34,85 C207.03,76.6 228.31,71.21 248.64,67.78" fill="none" id="Doctor-UC1" style="stroke:#181818;stroke-width:1;"/></g><!--link Doctor to UC2--><g class="link" data-entity-1="Doctor" data-entity-2="UC2" data-source-line="44" data-uid="lnk33" id="link_Doctor_UC2"><path d="M105.85,153.39 C126.17,138.81 157.45,119.19 188.34,111 C221.92,102.1 260.85,109.77 289.6,118.73" fill="none" id="Doctor-UC2" style="stroke:#181818;stroke-width:1;"/></g><!--link Doctor to UC3--><g class="link" data-entity-1="Doctor" data-entity-2="UC3" data-source-line="45" data-uid="lnk34" id="link_Doctor_UC3"><path d="M105.8,158.2 C128.71,147.14 164.22,135.32 189.34,152 C196.97,157.07 190.48,164.93 197.34,171 C212.46,184.38 231.97,193.07 251.4,198.71" fill="none" id="Doctor-UC3" style="stroke:#181818;stroke-width:1;"/></g><!--link Doctor to UC10--><g class="link" data-entity-1="Doctor" data-entity-2="UC10" data-source-line="46" data-uid="lnk35" id="link_Doctor_UC10"><path d="M105.76,177.19 C131.16,185.48 171.22,202.89 189.34,234 C200.75,253.59 183.74,623.86 197.34,642 C207.43,655.46 221.81,664.71 237.45,671.05" fill="none" id="Doctor-UC10" style="stroke:#181818;stroke-width:1;"/></g><!--link Doctor to UC19--><g class="link" data-entity-1="Doctor" data-entity-2="UC19" data-source-line="47" data-uid="lnk36" id="link_Doctor_UC19"><path d="M98.74,209.5 C116.33,254.77 144.33,332.55 158.34,402 C159.62,408.37 193.14,863.04 197.34,868 C213.63,887.23 239.1,896.4 263.48,900.54" fill="none" id="Doctor-UC19" style="stroke:#181818;stroke-width:1;"/></g><!--link Doctor to UC20--><g class="link" data-entity-1="Doctor" data-entity-2="UC20" data-source-line="48" data-uid="lnk37" id="link_Doctor_UC20"><path d="M105.66,184.99 C131.38,202.44 172.14,234.93 189.34,275 C200.93,302.01 178.95,781.07 197.34,804 C215.07,826.11 245.09,834.61 272.23,837.36" fill="none" id="Doctor-UC20" style="stroke:#181818;stroke-width:1;"/></g><!--link Patient to UC4--><g class="link" data-entity-1="Patient" data-entity-2="UC4" data-source-line="50" data-uid="lnk38" id="link_Patient_UC4"><path d="M107.27,421.93 C128.03,393.46 160.42,354.72 197.34,331 C214.05,320.26 233.71,312.1 252.73,305.97" fill="none" id="Patient-UC4" style="stroke:#181818;stroke-width:1;"/></g><!--link Patient to UC5--><g class="link" data-entity-1="Patient" data-entity-2="UC5" data-source-line="51" data-uid="lnk39" id="link_Patient_UC5"><path d="M107.06,446.76 C128.15,437.08 159.9,423.12 188.34,413 C212.06,404.56 238.46,396.6 262.05,389.98" fill="none" id="Patient-UC5" style="stroke:#181818;stroke-width:1;"/></g><!--link Patient to UC6--><g class="link" data-entity-1="Patient" data-entity-2="UC6" data-source-line="52" data-uid="lnk40" id="link_Patient_UC6"><path d="M107.23,452.39 C128.44,447.74 160.25,441.52 188.34,439 C209.8,437.08 233.09,437.82 254.51,439.65" fill="none" id="Patient-UC6" style="stroke:#181818;stroke-width:1;"/></g><!--link Patient to UC7--><g class="link" data-entity-1="Patient" data-entity-2="UC7" data-source-line="53" data-uid="lnk41" id="link_Patient_UC7"><path d="M107.04,458.69 C129.62,460.28 163.75,465.21 189.34,480 C193.97,482.68 192.82,486.12 197.34,489 C215.36,500.48 236.82,508.79 257.23,514.76" fill="none" id="Patient-UC7" style="stroke:#181818;stroke-width:1;"/></g><!--link Patient to UC10--><g class="link" data-entity-1="Patient" data-entity-2="UC10" data-source-line="54" data-uid="lnk42" id="link_Patient_UC10"><path d="M107.32,464.96 C132.55,473.61 170.95,491.05 189.34,521 C203.44,543.96 180.68,620.82 197.34,642 C207.74,655.22 222.27,664.37 237.94,670.67" fill="none" id="Patient-UC10" style="stroke:#181818;stroke-width:1;"/></g><!--link Patient to UC19--><g class="link" data-entity-1="Patient" data-entity-2="UC19" data-source-line="55" data-uid="lnk43" id="link_Patient_UC19"><path d="M101.07,496.51 C118.01,534.34 143.06,594.07 158.34,648 C160.03,653.97 193.11,863.45 197.34,868 C214.33,886.28 239.63,895.32 263.69,899.61" fill="none" id="Patient-UC19" style="stroke:#181818;stroke-width:1;"/></g><!--link Patient to UC20--><g class="link" data-entity-1="Patient" data-entity-2="UC20" data-source-line="56" data-uid="lnk44" id="link_Patient_UC20"><path d="M106.92,472.99 C132.57,490.7 172.09,522.79 189.34,562 C200.17,586.63 180.32,783.16 197.34,804 C215.19,825.86 245.05,834.37 272.06,837.19" fill="none" id="Patient-UC20" style="stroke:#181818;stroke-width:1;"/></g><!--link Nurse to UC8--><g class="link" data-entity-1="Nurse" data-entity-2="UC8" data-source-line="58" data-uid="lnk45" id="link_Nurse_UC8"><path d="M102.82,707.68 C124.19,711.78 159.32,718.78 189.34,726 C217.18,732.7 247.83,741 273.52,748.22" fill="none" id="Nurse-UC8" style="stroke:#181818;stroke-width:1;"/></g><!--link Nurse to UC9--><g class="link" data-entity-1="Nurse" data-entity-2="UC9" data-source-line="59" data-uid="lnk46" id="link_Nurse_UC9"><path d="M103.11,691.35 C125.37,677.65 162.83,655.92 197.34,642 C220.73,632.56 247.35,624.67 270.67,618.62" fill="none" id="Nurse-UC9" style="stroke:#181818;stroke-width:1;"/></g><!--link Nurse to UC10--><g class="link" data-entity-1="Nurse" data-entity-2="UC10" data-source-line="60" data-uid="lnk47" id="link_Nurse_UC10"><path d="M102.8,699.41 C123.82,694.74 158.23,687.8 188.34,685 C198.97,684.01 210.06,683.32 221.16,682.87" fill="none" id="Nurse-UC10" style="stroke:#181818;stroke-width:1;"/></g><!--link Nurse to UC19--><g class="link" data-entity-1="Nurse" data-entity-2="UC19" data-source-line="61" data-uid="lnk48" id="link_Nurse_UC19"><path d="M100.04,742.56 C118.51,780.24 151.7,836.4 197.34,868 C218.16,882.41 244.57,890.72 268.44,895.51" fill="none" id="Nurse-UC19" style="stroke:#181818;stroke-width:1;"/></g><!--link Nurse to UC20--><g class="link" data-entity-1="Nurse" data-entity-2="UC20" data-source-line="62" data-uid="lnk49" id="link_Nurse_UC20"><path d="M103,710.23 C127.28,718.93 167.8,737.08 189.34,767 C199.17,780.65 185.57,791.98 197.34,804 C216.66,823.74 245.82,832.18 272.01,835.5" fill="none" id="Nurse-UC20" style="stroke:#181818;stroke-width:1;"/></g><!--link Receptionist to UC8--><g class="link" data-entity-1="Receptionist" data-entity-2="UC8" data-source-line="64" data-uid="lnk50" id="link_Receptionist_UC8"><path d="M126,881.77 C148.09,875.83 173.63,865.14 189.34,846 C201.39,831.31 184.56,818.06 197.34,804 C210.54,789.48 228.8,780.24 247.6,774.4" fill="none" id="Receptionist-UC8" style="stroke:#181818;stroke-width:1;"/></g><!--link Receptionist to UC10--><g class="link" data-entity-1="Receptionist" data-entity-2="UC10" data-source-line="65" data-uid="lnk51" id="link_Receptionist_UC10"><path d="M100.83,850.5 C119.7,813.46 153.01,758.44 197.34,726 C212.59,714.84 230.88,706.59 248.98,700.51" fill="none" id="Receptionist-UC10" style="stroke:#181818;stroke-width:1;"/></g><!--link Receptionist to UC19--><g class="link" data-entity-1="Receptionist" data-entity-2="UC19" data-source-line="66" data-uid="lnk52" id="link_Receptionist_UC19"><path d="M125.95,908.79 C144.67,916.41 167.16,924.2 188.34,928 C224.47,934.48 265.73,925.2 294.61,915.98" fill="none" id="Receptionist-UC19" style="stroke:#181818;stroke-width:1;"/></g><!--link Receptionist to UC20--><g class="link" data-entity-1="Receptionist" data-entity-2="UC20" data-source-line="67" data-uid="lnk53" id="link_Receptionist_UC20"><path d="M125.98,898.44 C146.76,900.61 171.1,899.36 189.34,887 C196.92,881.86 190.35,873.93 197.34,868 C218.13,850.37 246.98,842.09 272.58,838.34" fill="none" id="Receptionist-UC20" style="stroke:#181818;stroke-width:1;"/></g><!--link Pharmacist to UC3--><g class="link" data-entity-1="Pharmacist" data-entity-2="UC3" data-source-line="69" data-uid="lnk54" id="link_Pharmacist_UC3"><path d="M121.78,998.01 C135.89,983.25 150.33,964.8 158.34,945 C187.45,872.99 148.79,307.64 197.34,247 C209.58,231.71 227.49,222.29 246.25,216.56" fill="none" id="Pharmacist-UC3" style="stroke:#181818;stroke-width:1;"/></g><!--link Pharmacist to UC11--><g class="link" data-entity-1="Pharmacist" data-entity-2="UC11" data-source-line="70" data-uid="lnk55" id="link_Pharmacist_UC11"><path d="M101.31,1070.3 C122.37,1109.89 158.22,1162.11 189.34,1133 C208.86,1114.74 180.59,1033.83 197.34,1013 C209.79,997.52 228.01,987.95 247.03,982.1" fill="none" id="Pharmacist-UC11" style="stroke:#181818;stroke-width:1;"/></g><!--link Pharmacist to UC10--><g class="link" data-entity-1="Pharmacist" data-entity-2="UC10" data-source-line="71" data-uid="lnk56" id="link_Pharmacist_UC10"><path d="M121.76,996.23 C135.33,981.62 149.41,963.74 158.34,945 C168.96,922.68 181.01,744.55 197.34,726 C208.69,713.1 223.96,704.12 240.11,697.87" fill="none" id="Pharmacist-UC10" style="stroke:#181818;stroke-width:1;"/></g><!--link Pharmacist to UC19--><g class="link" data-entity-1="Pharmacist" data-entity-2="UC19" data-source-line="72" data-uid="lnk57" id="link_Pharmacist_UC19"><path d="M121.67,1056.82 C144.03,1067.84 171.26,1074.93 189.34,1058 C209.17,1039.43 179.96,956.89 197.34,936 C213.46,916.63 238.89,907.43 263.29,903.31" fill="none" id="Pharmacist-UC19" style="stroke:#181818;stroke-width:1;"/></g><!--link Pharmacist to UC20--><g class="link" data-entity-1="Pharmacist" data-entity-2="UC20" data-source-line="73" data-uid="lnk58" id="link_Pharmacist_UC20"><path d="M121.56,1034.78 C144.76,1034.2 172.93,1029.03 189.34,1010 C209.97,986.06 177.07,892.25 197.34,868 C215.36,846.44 245.07,837.93 271.94,835.03" fill="none" id="Pharmacist-UC20" style="stroke:#181818;stroke-width:1;"/></g><!--link SysAdmin to UC12--><g class="link" data-entity-1="SysAdmin" data-entity-2="UC12" data-source-line="75" data-uid="lnk59" id="link_SysAdmin_UC12"><path d="M131.58,1418.53 C151.51,1429.63 173.56,1435.14 189.34,1420 C204.91,1405.06 183.98,1242.94 197.34,1226 C209.92,1210.05 228.67,1200.48 248.19,1194.81" fill="none" id="SysAdmin-UC12" style="stroke:#181818;stroke-width:1;"/></g><!--link SysAdmin to UC13--><g class="link" data-entity-1="SysAdmin" data-entity-2="UC13" data-source-line="76" data-uid="lnk60" id="link_SysAdmin_UC13"><path d="M158.57,1363.02 C170.63,1357.04 181.64,1348.95 189.34,1338 C205.7,1314.72 179.59,1104.25 197.34,1082 C212.48,1063.02 236.53,1053.56 260.11,1049.08" fill="none" id="SysAdmin-UC13" style="stroke:#181818;stroke-width:1;"/></g><!--link SysAdmin to UC14--><g class="link" data-entity-1="SysAdmin" data-entity-2="UC14" data-source-line="77" data-uid="lnk61" id="link_SysAdmin_UC14"><path d="M158.77,1393.01 C170.2,1391.35 180.96,1387.17 189.34,1379 C207.57,1361.23 181.36,1169.82 197.34,1150 C212.63,1131.04 236.86,1121.77 260.54,1117.48" fill="none" id="SysAdmin-UC14" style="stroke:#181818;stroke-width:1;"/></g><!--link SysAdmin to UC15--><g class="link" data-entity-1="SysAdmin" data-entity-2="UC15" data-source-line="78" data-uid="lnk62" id="link_SysAdmin_UC15"><path d="M121.51,1418.49 C140.21,1435.18 163.91,1453.5 188.34,1465 C207.82,1474.17 230.13,1480.45 251.24,1484.74" fill="none" id="SysAdmin-UC15" style="stroke:#181818;stroke-width:1;"/></g><!--link SysAdmin to UC19--><g class="link" data-entity-1="SysAdmin" data-entity-2="UC19" data-source-line="79" data-uid="lnk63" id="link_SysAdmin_UC19"><path d="M124.87,1341.41 C137.59,1327.39 150.33,1310.63 158.34,1293 C199.01,1203.51 179.6,1171.82 189.34,1074 C190.86,1058.72 187.56,947.84 197.34,936 C213.38,916.57 238.81,907.35 263.22,903.25" fill="none" id="SysAdmin-UC19" style="stroke:#181818;stroke-width:1;"/></g><!--link SysAdmin to UC20--><g class="link" data-entity-1="SysAdmin" data-entity-2="UC20" data-source-line="80" data-uid="lnk64" id="link_SysAdmin_UC20"><path d="M125.13,1341.52 C137.87,1327.51 150.55,1310.73 158.34,1293 C206.41,1183.63 179.42,1145.05 189.34,1026 C190.8,1008.48 186.1,881.52 197.34,868 C215.38,846.3 245.26,837.8 272.23,834.95" fill="none" id="SysAdmin-UC20" style="stroke:#181818;stroke-width:1;"/></g><!--link Analyst to UC16--><g class="link" data-entity-1="Analyst" data-entity-2="UC16" data-source-line="82" data-uid="lnk65" id="link_Analyst_UC16"><path d="M118.39,1275.47 C131.41,1290.27 145.99,1307.56 158.34,1324 C177.45,1349.43 171.61,1365.3 197.34,1384 C215.85,1397.45 239.08,1405.88 260.97,1411.16" fill="none" id="Analyst-UC16" style="stroke:#181818;stroke-width:1;"/></g><!--link Analyst to UC19--><g class="link" data-entity-1="Analyst" data-entity-2="UC19" data-source-line="83" data-uid="lnk66" id="link_Analyst_UC19"><path d="M114.77,1198.68 C139.93,1165.73 173.47,1115.77 189.34,1066 C193.73,1052.21 188.11,947.14 197.34,936 C213.42,916.59 238.85,907.39 263.25,903.28" fill="none" id="Analyst-UC19" style="stroke:#181818;stroke-width:1;"/></g><!--link Analyst to UC20--><g class="link" data-entity-1="Analyst" data-entity-2="UC20" data-source-line="84" data-uid="lnk67" id="link_Analyst_UC20"><path d="M108.2,1198.59 C134.17,1156.31 173.2,1085.39 189.34,1018 C193.23,1001.77 186.65,880.82 197.34,868 C215.33,846.41 245.04,837.9 271.91,835.01" fill="none" id="Analyst-UC20" style="stroke:#181818;stroke-width:1;"/></g><!--reverse link UC1 to UC21--><g class="link" data-entity-1="UC1" data-entity-2="UC21" data-source-line="87" data-uid="lnk68" id="link_UC1_UC21"><path d="M401.48,77.8436 C417.89,83.3336 429.24,88.92 443.33,99 C528.59,160 591.73,274.2 612.22,314.48" fill="none" id="UC1-backto-UC21" style="stroke:#181818;stroke-width:1;stroke-dasharray:7.0,7.0;"/><polygon fill="#181818" points="395.79,75.94,403.056,82.5888,400.5317,77.5263,405.5941,75.0021,395.79,75.94" style="stroke:#181818;stroke-width:1;"/><text fill="#000000" font-family="sans-serif" font-size="13" lengthAdjust="spacing" textLength="69.7798" x="474.33" y="120.0669">«includes»</text></g><!--reverse link UC3 to UC21--><g class="link" data-entity-1="UC3" data-entity-2="UC21" data-source-line="88" data-uid="lnk69" id="link_UC3_UC21"><path d="M391.6283,228.1783 C409.9083,234.4183 424.79,239.77 443.33,247 C488.95,264.79 500.03,270.15 544.33,291 C561.9,299.27 581.46,309.2 596.2,316.84" fill="none" id="UC3-backto-UC21" style="stroke:#181818;stroke-width:1;stroke-dasharray:7.0,7.0;"/><polygon fill="#181818" points="385.95,226.24,393.1752,232.933,390.6819,227.8553,395.7596,225.362,385.95,226.24" style="stroke:#181818;stroke-width:1;"/><text fill="#000000" font-family="sans-serif" font-size="13" lengthAdjust="spacing" textLength="69.7798" x="474.33" y="256.0669">«includes»</text></g><!--link UC1 to UC22--><g class="link" data-entity-1="UC1" data-entity-2="UC22" data-source-line="89" data-uid="lnk70" id="link_UC1_UC22"><path d="M404.66,73.34 C419.36,78.84 433.37,86.98 443.33,99 C505.44,173.98 434.18,226.85 473.33,316 C493.26,361.38 523.64,356.96 544.33,402 C614.24,554.17 619.4358,757.6 619.4758,814.96" fill="none" id="UC1-to-UC22" style="stroke:#181818;stroke-width:1;stroke-dasharray:7.0,7.0;"/><polygon fill="#181818" points="619.48,820.96,623.48,811.96,619.48,815.96,615.48,811.96,619.48,820.96" style="stroke:#181818;stroke-width:1;"/><text fill="#000000" font-family="sans-serif" font-size="13" lengthAdjust="spacing" textLength="67.958" x="475.33" y="312.0669">«extends»</text></g><!--reverse link UC19 to UC21--><g class="link" data-entity-1="UC19" data-entity-2="UC21" data-source-line="92" data-uid="lnk71" id="link_UC19_UC21"><path d="M398.975,892.5282 C416.965,887.5782 429.72,881.1 443.33,868 C484.01,828.82 593.21,426.7 615.39,343.87" fill="none" id="UC19-backto-UC21" style="stroke:#181818;stroke-width:1;stroke-dasharray:7.0,7.0;"/><polygon fill="#181818" points="393.19,894.12,402.9287,895.589,398.0108,892.7935,400.8063,887.8757,393.19,894.12" style="stroke:#181818;stroke-width:1;"/><text fill="#000000" font-family="sans-serif" font-size="13" lengthAdjust="spacing" textLength="69.7798" x="474.33" y="594.0669">«includes»</text></g><!--reverse link UC20 to UC21--><g class="link" data-entity-1="UC20" data-entity-2="UC21" data-source-line="93" data-uid="lnk72" id="link_UC20_UC21"><path d="M396.4693,830.6883 C415.9293,826.3983 430.2,819.47 443.33,804 C479.39,761.51 454.39,607.42 473.33,555 C505.4,466.26 577.77,376.85 606.88,343.08" fill="none" id="UC20-backto-UC21" style="stroke:#181818;stroke-width:1;stroke-dasharray:7.0,7.0;"/><polygon fill="#181818" points="390.61,831.98,400.2601,833.9487,395.4928,830.9036,398.5378,826.1362,390.61,831.98" style="stroke:#181818;stroke-width:1;"/><text fill="#000000" font-family="sans-serif" font-size="13" lengthAdjust="spacing" textLength="69.7798" x="474.33" y="423.0669">«includes»</text></g><!--link UC19 to UC22--><g class="link" data-entity-1="UC19" data-entity-2="UC22" data-source-line="94" data-uid="lnk73" id="link_UC19_UC22"><path d="M390.65,892.93 C433.35,885.68 492.9,874.51 544.33,861 C559.2,857.09 569.7518,853.7876 583.2918,849.0876" fill="none" id="UC19-to-UC22" style="stroke:#181818;stroke-width:1;stroke-dasharray:7.0,7.0;"/><polygon fill="#181818" points="588.96,847.12,579.146,846.2925,584.2365,848.7596,581.7694,853.8501,588.96,847.12" style="stroke:#181818;stroke-width:1;"/><text fill="#000000" font-family="sans-serif" font-size="13" lengthAdjust="spacing" textLength="67.958" x="475.33" y="857.0669">«extends»</text></g><!--link UC20 to UC22--><g class="link" data-entity-1="UC20" data-entity-2="UC22" data-source-line="95" data-uid="lnk74" id="link_UC20_UC22"><path d="M392.6,836 C446.59,836 519.18,836 568.23,836" fill="none" id="UC20-to-UC22" style="stroke:#181818;stroke-width:1;stroke-dasharray:7.0,7.0;"/><polygon fill="#181818" points="574.23,836,565.23,832,569.23,836,565.23,840,574.23,836" style="stroke:#181818;stroke-width:1;"/><text fill="#000000" font-family="sans-serif" font-size="13" lengthAdjust="spacing" textLength="67.958" x="475.33" y="832.0669">«extends»</text></g><!--SRC=[ZLNDRXCn4BxlKup2WN98ID8sxQAgKaWYGA8eQYbtrpjDBErFiBs5W90uSOT7x9CmzgwtwuqJDL4KV-DlnkFvyQHuhq4N8CLghI4H4haMHHv5B_lzFaovBgI2_ZC-4JDSc1VchmPBfWNckaQVIgcmNbyZnuqvI2YtlLmpcJ7-9EZTR9N63AP99WnFCfBsW2cW3IlqYGgcEKjfQJdrkhv8RUfP5p4XOFagHUYzHvRgzUFllpCc4POfq_U5p7hmCue0hE6tJ27Sqcz62mL7gOtZNLhYA_yqKYWLSaFlpIGoZR2HgBWKDWxMvzlP25vCv_FpnQHD_oBmMuWy3f4_IvQhUvGXXUFzrb6gWY868ZStP2sbav3I8X7waD9fIEaQlvQeTCYpIOX_mzUOb9G7jjaK8jSPrLBDFzjxammJmSadoc8X4rNppqFyQP8qzBpGwCXnq9bjpjUI2lO7GbRS2N8hmGV1qMLk6DAQ2xN1d5RLEUrC1rDzG_LCXfbcmEcsagNfrYa4q_qXrxYIffeMLzUE6SppmYI98xoRBnjYCBTNB6ShD5W2unoLYyiecDMbB1v4Gaao3QS5RzYJS0sOjBGp2bfaJH23URqIrGrJN36-jT5n_71UIxqcmoRUZU5u7x6Gb57NK4yvTFtz8UTfcM02hs7nNMDkbgrs9yUsLQEtxNuiLjGJpYWbUZ4rtmwbA5qrZySDvLVxvON7F_-Qq-ZDJ6q1gRNOTDxag7fsIMZkwg6nXuvzvj27iQyvZABw1Qy49puyzU74XsS-fADy7FlO76O7H0NFso1k0pBKHjwUCTAUBCxMheoi18HnG6YZq8mc5yMkP3JQ5GrtHV6Eo9XtuwmcZRk2uwxWf2iuxGhYZi0SKq_4cZ7fuDZ7Hi4M8fMVdNyx1NWaScNwddeDcf5Pzu8PP1U3GLNzRw1tSI6gFbANbxt83A93koCO32whjh2xQ1lFRjRDyTJWv0wrfcla2ZjhdHwnhy2XSwdz3xeLx_VBAk_R_Gy0]--></g></svg>