<svg xmlns="http://www.w3.org/2000/svg" xmlns:xlink="http://www.w3.org/1999/xlink" contentStyleType="text/css" data-diagram-type="DESCRIPTION" height="758px" preserveAspectRatio="none" style="width:755px;height:758px;background:#FFFFFF;" version="1.1" viewBox="0 0 755 758" width="755px" zoomAndPan="magnify"><defs/><g><!--cluster Medical Records & Device Management System--><g class="cluster" data-entity="Medical Records . Device Management System" data-source-line="9" data-uid="ent0005" id="cluster_Medical Records . Device Management System"><rect fill="none" height="745" rx="2.5" ry="2.5" style="stroke:#181818;stroke-width:1;" width="600" x="149" y="7"/><text fill="#000000" font-family="sans-serif" font-size="14" font-weight="bold" lengthAdjust="spacing" textLength="375.0264" x="261.4868" y="21.9951">Medical Records &amp; Device Management System</text></g><!--entity UC1--><g class="entity" data-entity="UC1" data-source-line="12" data-uid="ent0006" id="entity_UC1"><ellipse cx="295.9987" cy="62.7997" fill="#ADD8E6" rx="89.4987" ry="20.2997" style="stroke:#181818;stroke-width:0.5;"/><text fill="#000000" font-family="sans-serif" font-size="14" lengthAdjust="spacing" textLength="152.6055" x="219.696" y="67.4482">View Medical Records</text></g><!--entity UC2--><g class="entity" data-entity="UC2" data-source-line="13" data-uid="ent0007" id="entity_UC2"><ellipse cx="296.1812" cy="138.2362" fill="#ADD8E6" rx="86.6812" ry="19.7362" style="stroke:#181818;stroke-width:0.5;"/><text fill="#000000" font-family="sans-serif" font-size="14" lengthAdjust="spacing" textLength="146.1865" x="223.088" y="142.8847">Edit Medical Records</text></g><!--entity UC3--><g class="entity" data-entity="UC3" data-source-line="14" data-uid="ent0008" id="entity_UC3"><ellipse cx="296.0482" cy="215.9096" fill="#ADD8E6" rx="102.5482" ry="22.9096" style="stroke:#181818;stroke-width:0.5;"/><text fill="#000000" font-family="sans-serif" font-size="14" lengthAdjust="spacing" textLength="181.6582" x="205.2191" y="220.5581">Link External Device Data</text></g><!--entity UC4--><g class="entity" data-entity="UC4" data-source-line="15" data-uid="ent0009" id="entity_UC4"><ellipse cx="295.8593" cy="303.0719" fill="#ADD8E6" rx="130.8593" ry="28.5719" style="stroke:#181818;stroke-width:0.5;"/><text fill="#000000" font-family="sans-serif" font-size="14" lengthAdjust="spacing" textLength="242.3887" x="174.6649" y="307.7203">Restrict View To Assigned Patients</text></g><!--entity UC5--><g class="entity" data-entity="UC5" data-source-line="16" data-uid="ent0010" id="entity_UC5"><ellipse cx="296.1387" cy="390.0277" fill="#ADD8E6" rx="105.6387" ry="23.5277" style="stroke:#181818;stroke-width:0.5;"/><text fill="#000000" font-family="sans-serif" font-size="14" lengthAdjust="spacing" textLength="188.4121" x="201.9327" y="394.6762">Add Edit Annotate Records</text></g><!--entity UC6--><g class="entity" data-entity="UC6" data-source-line="17" data-uid="ent0011" id="entity_UC6"><ellipse cx="295.8315" cy="471.7663" fill="#ADD8E6" rx="101.8315" ry="22.7663" style="stroke:#181818;stroke-width:0.5;"/><text fill="#000000" font-family="sans-serif" font-size="14" lengthAdjust="spacing" textLength="180.0859" x="205.7885" y="476.4147">Order And Rate Lab Tests</text></g><!--entity UC7--><g class="entity" data-entity="UC7" data-source-line="18" data-uid="ent0012" id="entity_UC7"><ellipse cx="295.934" cy="550.8868" fill="#ADD8E6" rx="92.434" ry="20.8868" style="stroke:#181818;stroke-width:0.5;"/><text fill="#000000" font-family="sans-serif" font-size="14" lengthAdjust="spacing" textLength="159.2295" x="216.3192" y="555.5352">Authenticate Via DigiD</text></g><!--entity UC8--><g class="entity" data-entity="UC8" data-source-line="19" data-uid="ent0013" id="entity_UC8"><ellipse cx="296.2383" cy="632.8477" fill="#ADD8E6" rx="117.2383" ry="25.8477" style="stroke:#181818;stroke-width:0.5;"/><text fill="#000000" font-family="sans-serif" font-size="14" lengthAdjust="spacing" textLength="213.4521" x="189.5122" y="637.4961">Manage Device Authorizations</text></g><!--entity UC9--><g class="entity" data-entity="UC9" data-source-line="20" data-uid="ent0014" id="entity_UC9"><ellipse cx="295.8299" cy="714.766" fill="#ADD8E6" rx="89.3299" ry="20.266" style="stroke:#181818;stroke-width:0.5;"/><text fill="#000000" font-family="sans-serif" font-size="14" lengthAdjust="spacing" textLength="152.2227" x="219.7186" y="719.4144">Control Data Visibility</text></g><!--entity UC10--><g class="entity" data-entity="UC10" data-source-line="23" data-uid="ent0015" id="entity_UC10"><ellipse cx="645.3478" cy="215.8696" fill="#EAEAEA" rx="87.3478" ry="19.8696" style="stroke:#181818;stroke-width:0.5;"/><text fill="#000000" font-family="sans-serif" font-size="14" lengthAdjust="spacing" textLength="147.7109" x="571.4924" y="220.518">Validate Device Data</text></g><!--entity UC11--><g class="entity" data-entity="UC11" data-source-line="24" data-uid="ent0016" id="entity_UC11"><ellipse cx="645.4646" cy="551.0236" fill="#EAEAEA" rx="49.9646" ry="14.5236" style="stroke:#181818;stroke-width:0.5;"/><text fill="#000000" font-family="sans-serif" font-size="14" lengthAdjust="spacing" textLength="66.418" x="612.2556" y="555.6721">Audit Log</text></g><!--entity Patient--><g class="entity" data-entity="Patient" data-source-line="4" data-uid="ent0002" id="entity_Patient"><ellipse cx="54.188" cy="108.5" fill="#F1F1F1" rx="8" ry="8" style="stroke:#181818;stroke-width:0.5;"/><path d="M54.188,116.5 L54.188,143.5 M41.188,124.5 L67.188,124.5 M54.188,143.5 L41.188,158.5 M54.188,143.5 L67.188,158.5" fill="none" style="stroke:#181818;stroke-width:0.5;"/><text fill="#000000" font-family="sans-serif" font-size="14" lengthAdjust="spacing" textLength="49.376" x="29.5" y="172.9951">Patient</text></g><!--entity Doctor--><g class="entity" data-entity="Doctor" data-source-line="5" data-uid="ent0003" id="entity_Doctor"><ellipse cx="53.9268" cy="360.5" fill="#F1F1F1" rx="8" ry="8" style="stroke:#181818;stroke-width:0.5;"/><path d="M53.9268,368.5 L53.9268,395.5 M40.9268,376.5 L66.9268,376.5 M53.9268,395.5 L40.9268,410.5 M53.9268,395.5 L66.9268,410.5" fill="none" style="stroke:#181818;stroke-width:0.5;"/><text fill="#000000" font-family="sans-serif" font-size="14" lengthAdjust="spacing" textLength="46.8535" x="30.5" y="424.9951">Doctor</text></g><!--entity Administrator--><g class="entity" data-entity="Administrator" data-source-line="6" data-uid="ent0004" id="entity_Administrator"><ellipse cx="53.8413" cy="603.5" fill="#F1F1F1" rx="8" ry="8" style="stroke:#181818;stroke-width:0.5;"/><path d="M53.8413,611.5 L53.8413,638.5 M40.8413,619.5 L66.8413,619.5 M53.8413,638.5 L40.8413,653.5 M53.8413,638.5 L66.8413,653.5" fill="none" style="stroke:#181818;stroke-width:0.5;"/><text fill="#000000" font-family="sans-serif" font-size="14" lengthAdjust="spacing" textLength="95.6826" x="6" y="667.9951">Administrator</text></g><!--reverse link UC3 to UC10--><g class="link" data-entity-1="UC3" data-entity-2="UC10" data-source-line="27" data-uid="lnk17" id="link_UC3_UC10"><path d="M404.91,216 C455.38,216 509.66,216 557.87,216" fill="none" id="UC3-backto-UC10" style="stroke:#181818;stroke-width:1;stroke-dasharray:7,7;"/><polygon fill="#181818" points="398.91,216,407.91,220,403.91,216,407.91,212,398.91,216" style="stroke:#181818;stroke-width:1;"/><text fill="#000000" font-family="sans-serif" font-size="13" lengthAdjust="spacing" textLength="69.7798" x="458" y="212.0669">&#171;includes&#187;</text></g><!--link UC7 to UC11--><g class="link" data-entity-1="UC7" data-entity-2="UC11" data-source-line="28" data-uid="lnk18" id="link_UC7_UC11"><path d="M388.76,551 C454.91,551 535.65,551 589.2,551" fill="none" id="UC7-to-UC11" style="stroke:#181818;stroke-width:1;stroke-dasharray:7,7;"/><polygon fill="#181818" points="595.2,551,586.2,547,590.2,551,586.2,555,595.2,551" style="stroke:#181818;stroke-width:1;"/><text fill="#000000" font-family="sans-serif" font-size="13" lengthAdjust="spacing" textLength="67.958" x="459" y="547.0669">&#171;extends&#187;</text></g><!--link Patient to UC1--><g class="link" data-entity-1="Patient" data-entity-2="UC1" data-source-line="32" data-uid="lnk19" id="link_Patient_UC1"><path d="M78.68,126.56 C95.73,118.63 119.43,108.25 141,101 C169.45,91.44 201.6,83.13 229.13,76.74" fill="none" id="Patient-UC1" style="stroke:#181818;stroke-width:1;"/></g><!--link Patient to UC2--><g class="link" data-entity-1="Patient" data-entity-2="UC2" data-source-line="33" data-uid="lnk20" id="link_Patient_UC2"><path d="M78.89,138 C109.18,138 163.06,138 209.44,138" fill="none" id="Patient-UC2" style="stroke:#181818;stroke-width:1;"/></g><!--link Patient to UC3--><g class="link" data-entity-1="Patient" data-entity-2="UC3" data-source-line="34" data-uid="lnk21" id="link_Patient_UC3"><path d="M78.73,149.32 C95.79,157.19 119.5,167.56 141,175 C167.8,184.28 197.83,192.7 224.2,199.46" fill="none" id="Patient-UC3" style="stroke:#181818;stroke-width:1;"/></g><!--link Doctor to UC4--><g class="link" data-entity-1="Doctor" data-entity-2="UC4" data-source-line="35" data-uid="lnk22" id="link_Doctor_UC4"><path d="M77.57,378.06 C94.68,369.3 118.93,357.5 141,349 C163.91,340.18 189.27,331.98 212.69,325.03" fill="none" id="Doctor-UC4" style="stroke:#181818;stroke-width:1;"/></g><!--link Doctor to UC5--><g class="link" data-entity-1="Doctor" data-entity-2="UC5" data-source-line="36" data-uid="lnk23" id="link_Doctor_UC5"><path d="M77.58,390 C103.6,390 148.2,390 190.26,390" fill="none" id="Doctor-UC5" style="stroke:#181818;stroke-width:1;"/></g><!--link Doctor to UC6--><g class="link" data-entity-1="Doctor" data-entity-2="UC6" data-source-line="37" data-uid="lnk24" id="link_Doctor_UC6"><path d="M77.5,402.14 C94.57,411 118.8,422.83 141,431 C167.36,440.7 197.02,449.15 223.23,455.82" fill="none" id="Doctor-UC6" style="stroke:#181818;stroke-width:1;"/></g><!--link Administrator to UC7--><g class="link" data-entity-1="Administrator" data-entity-2="UC7" data-source-line="38" data-uid="lnk25" id="link_Administrator_UC7"><path d="M102.33,606.32 C114.66,600.05 128.12,593.81 141,589 C167.96,578.93 198.57,570.75 225.36,564.6" fill="none" id="Administrator-UC7" style="stroke:#181818;stroke-width:1;"/></g><!--link Administrator to UC8--><g class="link" data-entity-1="Administrator" data-entity-2="UC8" data-source-line="39" data-uid="lnk26" id="link_Administrator_UC8"><path d="M102.13,633 C124.24,633 151.67,633 178.84,633" fill="none" id="Administrator-UC8" style="stroke:#181818;stroke-width:1;"/></g><!--link Administrator to UC9--><g class="link" data-entity-1="Administrator" data-entity-2="UC9" data-source-line="40" data-uid="lnk27" id="link_Administrator_UC9"><path d="M102.4,658.98 C114.73,665.11 128.17,671.23 141,676 C169.05,686.43 200.99,695.02 228.48,701.46" fill="none" id="Administrator-UC9" style="stroke:#181818;stroke-width:1;"/></g><!--SRC=[TLF9Rjim4BtpAmOAq3G7ktKMsoaC0shacvCMpd9do8ayg4m69DtMBVhl6LAIOoKgT11cUVFUBApmAK2muAXS1z3aK0MoHeXZAF293CApeurqEv0gMET5-i5t6GXDQAp2nbzZv7f3XdnmClfUw_YT3xW1QJHiFOAI7hs8TDAK5K9sZPgKh625oZhjuGC3Vv92k9P6bhXXEhXDDJBuAmJ0CNpb6g_5uAEo5GiuoejYkXYVS0h7OWYo1y9Vy8OX0-dX_chK0Wxp5vh2V_9F-_ANP7x0udT0PnZG22zaa0teh0-qGfuIgG19tPs5t7ig3Ufsl2tbUHywrngIpDmO6sJ0Dpel-a3Vd4PU4UzW5H5B-GXthAB5Z7k9jc7DOdWKZ7WW2GMLL3I8IH-YtbWxXeYtZlx8U5WjqxGFTsLDSBPAWsCcJuzKKTWraCiz92t_XcT6HbLRZP-G9tzuL_jJMEJnwvw2h4Z7LjvlQVIvHNJxZrDUshBD6kspaf0LLdLhQthsBCcJHk2HmVwuEIsUm6muh4c-G3QRDThzV9wb-0I6mtbTFiNhdbBuNtn6UNfT0xXlckJo1xoYEHaO36ADhddQDSz4_M1hwxnZNNIiiUYyvjevwNDE-voNBm00]--></g></svg>