<svg xmlns="http://www.w3.org/2000/svg" xmlns:xlink="http://www.w3.org/1999/xlink" contentstyletype="text/css" data-diagram-type="DESCRIPTION" height="1190px" preserveAspectRatio="none" style="width:842px;height:1190px;background:#FFFFFF;" version="1.1" viewBox="0 0 842 1190" width="842px" zoomAndPan="magnify" transform="scale(0.6549518250000003)" transform-origin="0 0"><defs/><g><!--cluster IFA Sports System--><g class="cluster" data-entity="IFA Sports System" data-source-line="10" data-uid="ent0006" id="cluster_IFA Sports System"><rect fill="none" height="1128" rx="2.5" ry="2.5" style="stroke:#181818;stroke-width:1;" width="661.56" x="174.89" y="7"/><text fill="#000000" font-family="sans-serif" font-size="14" font-weight="bold" lengthAdjust="spacing" textLength="145.3252" x="433.0074" y="21.9951">IFA Sports System</text></g><g class="entity" data-entity="UC1" data-source-line="13" data-uid="ent0007" id="entity_UC1"><ellipse cx="350.2318" cy="70.0024" fill="#ADD8E6" rx="125.9118" ry="27.5824" style="stroke:#181818;stroke-width:0.5;"/><text fill="#000000" font-family="sans-serif" font-size="14" lengthAdjust="spacing" textLength="219.9258" x="240.2689" y="72.849">Register and Authenticate User</text></g><g class="entity" data-entity="UC2" data-source-line="14" data-uid="ent0008" id="entity_UC2"><ellipse cx="350.2265" cy="859.0013" fill="#ADD8E6" rx="116.8565" ry="25.7713" style="stroke:#181818;stroke-width:0.5;"/><text fill="#000000" font-family="sans-serif" font-size="14" lengthAdjust="spacing" textLength="200.6348" x="249.9092" y="861.848">Manage Leagues and Teams</text></g><g class="entity" data-entity="UC3" data-source-line="15" data-uid="ent0009" id="entity_UC3"><ellipse cx="350.2323" cy="1098.0025" fill="#ADD8E6" rx="91.9123" ry="20.7825" style="stroke:#181818;stroke-width:0.5;"/><text fill="#000000" font-family="sans-serif" font-size="14" lengthAdjust="spacing" textLength="146.0566" x="277.204" y="1100.8491">Report Match Events</text></g><g class="entity" data-entity="UC4" data-source-line="16" data-uid="ent0010" id="entity_UC4"><ellipse cx="350.2263" cy="1020.9953" fill="#ADD8E6" rx="93.9263" ry="21.1853" style="stroke:#181818;stroke-width:0.5;"/><text fill="#000000" font-family="sans-serif" font-size="14" lengthAdjust="spacing" textLength="150.5752" x="274.9387" y="1023.8419">View Live Game Data</text></g><g class="entity" data-entity="UC5" data-source-line="17" data-uid="ent0011" id="entity_UC5"><ellipse cx="350.2338" cy="773.9988" fill="#ADD8E6" rx="106.9938" ry="23.7988" style="stroke:#181818;stroke-width:0.5;"/><text fill="#000000" font-family="sans-serif" font-size="14" lengthAdjust="spacing" textLength="179.3613" x="260.5532" y="776.8454">Subscribe to Notifications</text></g><g class="entity" data-entity="UC6" data-source-line="18" data-uid="ent0012" id="entity_UC6"><ellipse cx="350.2331" cy="153.9966" fill="#ADD8E6" rx="92.6331" ry="20.9266" style="stroke:#181818;stroke-width:0.5;"/><text fill="#000000" font-family="sans-serif" font-size="14" lengthAdjust="spacing" textLength="147.6768" x="276.3947" y="156.8433">Receive Match Alerts</text></g><g class="entity" data-entity="UC7" data-source-line="19" data-uid="ent0013" id="entity_UC7"><ellipse cx="350.2323" cy="595.9965" fill="#ADD8E6" rx="108.3823" ry="24.0765" style="stroke:#181818;stroke-width:0.5;"/><text fill="#000000" font-family="sans-serif" font-size="14" lengthAdjust="spacing" textLength="182.376" x="259.0443" y="598.8431">Post Social Media Content</text></g><g class="entity" data-entity="UC8" data-source-line="20" data-uid="ent0014" id="entity_UC8"><ellipse cx="350.2325" cy="684.9965" fill="#ADD8E6" rx="136.8825" ry="29.7765" style="stroke:#181818;stroke-width:0.5;"/><text fill="#000000" font-family="sans-serif" font-size="14" lengthAdjust="spacing" textLength="243.0654" x="228.6998" y="687.8432">Comment on Social Media Content</text></g><g class="entity" data-entity="UC9" data-source-line="21" data-uid="ent0015" id="entity_UC9"><ellipse cx="350.226" cy="941.9972" fill="#ADD8E6" rx="101.086" ry="22.6172" style="stroke:#181818;stroke-width:0.5;"/><text fill="#000000" font-family="sans-serif" font-size="14" lengthAdjust="spacing" textLength="166.4482" x="267.0019" y="944.8439">Generate Live Analytics</text></g><g class="entity" data-entity="UC10" data-source-line="22" data-uid="ent0016" id="entity_UC10"><ellipse cx="350.2307" cy="506.9981" fill="#ADD8E6" rx="139.2907" ry="30.2581" style="stroke:#181818;stroke-width:0.5;"/><text fill="#000000" font-family="sans-serif" font-size="14" lengthAdjust="spacing" textLength="248.1172" x="226.1721" y="509.8448">Enforce Budget &amp; Scheduling Rules</text></g><g class="entity" data-entity="UC11" data-source-line="23" data-uid="ent0017" id="entity_UC11"><ellipse cx="350.2344" cy="406.9969" fill="#ADD8E6" rx="159.3344" ry="34.2669" style="stroke:#181818;stroke-width:0.5;"/><text fill="#000000" font-family="sans-serif" font-size="14" lengthAdjust="spacing" textLength="289.8643" x="205.3022" y="409.8436">Maintain Secure Communication Channel</text></g><g class="entity" data-entity="UC12" data-source-line="24" data-uid="ent0018" id="entity_UC12"><ellipse cx="350.2287" cy="236.0017" fill="#ADD8E6" rx="116.9587" ry="25.7917" style="stroke:#181818;stroke-width:0.5;"/><text fill="#000000" font-family="sans-serif" font-size="14" lengthAdjust="spacing" textLength="200.8535" x="249.8019" y="238.8484">Multilingual Interface Access</text></g><g class="entity" data-entity="UC13" data-source-line="25" data-uid="ent0019" id="entity_UC13"><ellipse cx="350.2276" cy="317.0035" fill="#ADD8E6" rx="89.6176" ry="20.3235" style="stroke:#181818;stroke-width:0.5;"/><text fill="#000000" font-family="sans-serif" font-size="14" lengthAdjust="spacing" textLength="140.875" x="279.7901" y="319.8502">Fast Response Time</text></g><g class="entity" data-entity="UC14" data-source-line="28" data-uid="ent0020" id="entity_UC14"><ellipse cx="730.5036" cy="973.9987" fill="#EAEAEA" rx="89.9436" ry="20.3887" style="stroke:#181818;stroke-width:0.5;"/><text fill="#000000" font-family="sans-serif" font-size="14" lengthAdjust="spacing" textLength="141.6133" x="659.6969" y="976.8454">Validate Credentials</text></g><g class="entity" data-entity="UC15" data-source-line="29" data-uid="ent0021" id="entity_UC15"><ellipse cx="730.5014" cy="773.9983" fill="#EAEAEA" rx="88.1914" ry="20.0383" style="stroke:#181818;stroke-width:0.5;"/><text fill="#000000" font-family="sans-serif" font-size="14" lengthAdjust="spacing" textLength="137.6348" x="661.684" y="776.845">Notify Stakeholders</text></g><!--entity User--><g class="entity" data-entity="User" data-source-line="4" data-uid="ent0002" id="entity_User"><ellipse cx="66.9451" cy="196.36" fill="#F1F1F1" rx="8" ry="8" style="stroke:#181818;stroke-width:0.5;"/><path d="M66.9451,204.36 L66.9451,231.36 M53.9451,212.36 L79.9451,212.36 M66.9451,231.36 L53.9451,246.36 M66.9451,231.36 L79.9451,246.36" fill="none" style="stroke:#181818;stroke-width:0.5;"/><text fill="#000000" font-family="sans-serif" font-size="14" lengthAdjust="spacing" textLength="31.9102" x="50.99" y="260.8551">User</text></g><!--entity IFA--><g class="entity" data-entity="IFA" data-source-line="5" data-uid="ent0003" id="entity_IFA"><ellipse cx="66.9458" cy="606.36" fill="#F1F1F1" rx="8" ry="8" style="stroke:#181818;stroke-width:0.5;"/><path d="M66.9458,614.36 L66.9458,641.36 M53.9458,622.36 L79.9458,622.36 M66.9458,641.36 L53.9458,656.36 M66.9458,641.36 L79.9458,656.36" fill="none" style="stroke:#181818;stroke-width:0.5;"/><text fill="#000000" font-family="sans-serif" font-size="14" lengthAdjust="spacing" textLength="121.8916" x="6" y="670.8551">IFA Administrator</text></g><!--entity Referee--><g class="entity" data-entity="Referee" data-source-line="6" data-uid="ent0004" id="entity_Referee"><ellipse cx="66.9426" cy="1037.36" fill="#F1F1F1" rx="8" ry="8" style="stroke:#181818;stroke-width:0.5;"/><path d="M66.9426,1045.36 L66.9426,1072.36 M53.9426,1053.36 L79.9426,1053.36 M66.9426,1072.36 L53.9426,1087.36 M66.9426,1072.36 L79.9426,1087.36" fill="none" style="stroke:#181818;stroke-width:0.5;"/><text fill="#000000" font-family="sans-serif" font-size="14" lengthAdjust="spacing" textLength="54.8652" x="39.51" y="1101.8551">Referee</text></g><!--entity Pub--><g class="entity" data-entity="Pub" data-source-line="7" data-uid="ent0005" id="entity_Pub"><ellipse cx="66.9495" cy="381.36" fill="#F1F1F1" rx="8" ry="8" style="stroke:#181818;stroke-width:0.5;"/><path d="M66.9495,389.36 L66.9495,416.36 M53.9495,397.36 L79.9495,397.36 M66.9495,416.36 L53.9495,431.36 M66.9495,416.36 L79.9495,431.36" fill="none" style="stroke:#181818;stroke-width:0.5;"/><text fill="#000000" font-family="sans-serif" font-size="14" lengthAdjust="spacing" textLength="78.0391" x="27.93" y="445.8551">Public User</text></g><!--link User to UC1--><g class="link" data-entity-1="User" data-entity-2="UC1" data-source-line="33" data-uid="lnk22" id="link_User_UC1"><path d="M83.12,202.02 C100.36,176.79 130.82,137.76 166.89,116 C190.38,101.84 218.08,92.02 244.7,85.22" fill="none" id="User-UC1" style="stroke:#181818;stroke-width:1;"/></g><!--link User to UC5--><g class="link" data-entity-1="User" data-entity-2="UC5" data-source-line="34" data-uid="lnk23" id="link_User_UC5"><path d="M83.32,250.83 C105.14,287.65 144.09,359.67 158.89,427 C162.53,443.56 156.16,718.88 166.89,732 C185.6,754.89 214.05,766.81 242.95,772.68" fill="none" id="User-UC5" style="stroke:#181818;stroke-width:1;"/></g><!--link User to UC6--><g class="link" data-entity-1="User" data-entity-2="UC6" data-source-line="35" data-uid="lnk24" id="link_User_UC6"><path d="M83.21,220.32 C102.51,213.28 136.84,201.2 166.89,193 C203.12,183.12 243.95,174.19 277.78,167.37" fill="none" id="User-UC6" style="stroke:#181818;stroke-width:1;"/></g><!--link User to UC12--><g class="link" data-entity-1="User" data-entity-2="UC12" data-source-line="36" data-uid="lnk25" id="link_User_UC12"><path d="M83.07,226.54 C111.65,227.56 175.98,229.85 234.23,231.92" fill="none" id="User-UC12" style="stroke:#181818;stroke-width:1;"/></g><!--link User to UC13--><g class="link" data-entity-1="User" data-entity-2="UC13" data-source-line="37" data-uid="lnk26" id="link_User_UC13"><path d="M83.07,235.89 C101.95,247.8 135.57,267.62 166.89,279 C200.93,291.38 240.08,300.2 273.36,306.2" fill="none" id="User-UC13" style="stroke:#181818;stroke-width:1;"/></g><!--link IFA to UC2--><g class="link" data-entity-1="IFA" data-entity-2="UC2" data-source-line="39" data-uid="lnk27" id="link_IFA_UC2"><path d="M78.9,674.31 C92.66,715.39 120.3,779.49 166.89,815 C188.78,831.69 216.08,842.15 242.84,848.68" fill="none" id="IFA-UC2" style="stroke:#181818;stroke-width:1;"/></g><!--link IFA to UC4--><g class="link" data-entity-1="IFA" data-entity-2="UC4" data-source-line="40" data-uid="lnk28" id="link_IFA_UC4"><path d="M66.97,674.43 C67.38,746.03 79.13,900 166.89,982 C190.78,1004.33 224.2,1015.11 255.91,1019.98" fill="none" id="IFA-UC4" style="stroke:#181818;stroke-width:1;"/></g><!--link IFA to UC9--><g class="link" data-entity-1="IFA" data-entity-2="UC9" data-source-line="41" data-uid="lnk29" id="link_IFA_UC9"><path d="M70.94,674.61 C77.63,732.95 99.01,843.03 166.89,902 C189.89,921.98 220.58,932.68 250.22,938.23" fill="none" id="IFA-UC9" style="stroke:#181818;stroke-width:1;"/></g><!--link IFA to UC10--><g class="link" data-entity-1="IFA" data-entity-2="UC10" data-source-line="42" data-uid="lnk30" id="link_IFA_UC10"><path d="M128.29,632 C139.86,628.55 150.85,622.94 158.89,614 C176.89,594.01 149.04,574.13 166.89,554 C181.53,537.5 201.13,526.43 222.05,519.07" fill="none" id="IFA-UC10" style="stroke:#181818;stroke-width:1;"/></g><!--link IFA to UC11--><g class="link" data-entity-1="IFA" data-entity-2="UC11" data-source-line="43" data-uid="lnk31" id="link_IFA_UC11"><path d="M127.96,605.87 C140.14,596.96 151.48,586.02 158.89,573 C171.46,550.93 150.89,478.73 166.89,459 C179.23,443.79 195.68,432.84 213.67,425" fill="none" id="IFA-UC11" style="stroke:#181818;stroke-width:1;"/></g><!--link IFA to UC12--><g class="link" data-entity-1="IFA" data-entity-2="UC12" data-source-line="44" data-uid="lnk32" id="link_IFA_UC12"><path d="M84.92,597.71 C106.22,547.78 141.98,457.23 158.89,376 C163.3,354.83 152.78,295.4 166.89,279 C184.18,258.92 208.95,247.26 234.67,240.7" fill="none" id="IFA-UC12" style="stroke:#181818;stroke-width:1;"/></g><!--link IFA to UC13--><g class="link" data-entity-1="IFA" data-entity-2="UC13" data-source-line="45" data-uid="lnk33" id="link_IFA_UC13"><path d="M112.88,597.48 C130.55,579.54 148.97,556.71 158.89,532 C166.23,513.74 154.13,369.99 166.89,355 C189.95,327.92 226.86,317.1 261.45,313.56" fill="none" id="IFA-UC13" style="stroke:#181818;stroke-width:1;"/></g><!--link Referee to UC3--><g class="link" data-entity-1="Referee" data-entity-2="UC3" data-source-line="47" data-uid="lnk34" id="link_Referee_UC3"><path d="M94.66,1069.95 C133.81,1074.26 208.45,1082.49 266.83,1088.92" fill="none" id="Referee-UC3" style="stroke:#181818;stroke-width:1;"/></g><!--link Referee to UC4--><g class="link" data-entity-1="Referee" data-entity-2="UC4" data-source-line="48" data-uid="lnk35" id="link_Referee_UC4"><path d="M94.66,1062.64 C135.25,1056 213.99,1043.12 273.21,1033.44" fill="none" id="Referee-UC4" style="stroke:#181818;stroke-width:1;"/></g><!--link Referee to UC14--><g class="link" data-entity-1="Referee" data-entity-2="UC14" data-source-line="49" data-uid="lnk36" id="link_Referee_UC14"><path d="M94.88,1092.65 C113.49,1108.53 139.72,1127.47 166.89,1136 C312.18,1181.66 364.87,1183.54 509.56,1136 C595.84,1107.66 676.11,1031.07 711.08,994.28" fill="none" id="Referee-UC14" style="stroke:#181818;stroke-width:1;"/></g><!--link Referee to UC13--><g class="link" data-entity-1="Referee" data-entity-2="UC13" data-source-line="50" data-uid="lnk37" id="link_Referee_UC13"><path d="M76.32,1028.56 C94.81,941.89 139.08,724.4 158.89,540 C159.99,529.78 160.23,362.84 166.89,355 C189.92,327.9 226.83,317.07 261.43,313.54" fill="none" id="Referee-UC13" style="stroke:#181818;stroke-width:1;"/></g><!--link Pub to UC4--><g class="link" data-entity-1="Pub" data-entity-2="UC4" data-source-line="52" data-uid="lnk38" id="link_Pub_UC4"><path d="M84.64,449.48 C98.54,483.23 117.65,533.96 127.89,580 C132.76,601.91 151.96,965.26 166.89,982 C189.3,1007.13 223.6,1018.27 256.42,1022.66" fill="none" id="Pub-UC4" style="stroke:#181818;stroke-width:1;"/></g><!--link Pub to UC5--><g class="link" data-entity-1="Pub" data-entity-2="UC5" data-source-line="53" data-uid="lnk39" id="link_Pub_UC5"><path d="M106.07,418.63 C125.3,424.59 147.01,435.01 158.89,453 C175.98,478.89 147.23,708.02 166.89,732 C185.63,754.87 214.08,766.78 242.98,772.65" fill="none" id="Pub-UC5" style="stroke:#181818;stroke-width:1;"/></g><!--link Pub to UC6--><g class="link" data-entity-1="Pub" data-entity-2="UC6" data-source-line="54" data-uid="lnk40" id="link_Pub_UC6"><path d="M86.14,372.44 C98.14,346.86 114.12,312.5 127.89,282 C132.33,272.16 158.53,199.83 166.89,193 C192.35,172.24 226.29,161.81 257.97,156.78" fill="none" id="Pub-UC6" style="stroke:#181818;stroke-width:1;"/></g><!--link Pub to UC12--><g class="link" data-entity-1="Pub" data-entity-2="UC12" data-source-line="55" data-uid="lnk41" id="link_Pub_UC12"><path d="M106.13,402.51 C125.12,396.23 146.6,385.62 158.89,368 C170.26,351.72 153.88,294.01 166.89,279 C184.26,258.98 209.05,247.35 234.77,240.79" fill="none" id="Pub-UC12" style="stroke:#181818;stroke-width:1;"/></g><!--reverse link UC1 to UC14--><g class="link" data-entity-1="UC1" data-entity-2="UC14" data-source-line="58" data-uid="lnk42" id="link_UC1_UC14"><path d="M464.8244,86.1324 C483.7844,93.0724 496.09,101.17 509.56,116 C721.12,349.07 534.38,515.69 640.56,812 C659.93,866.07 695.7,923.73 715.46,953.53" fill="none" id="UC1-backto-UC14" style="stroke:#181818;stroke-width:1;stroke-dasharray:7.0,7.0;"/><polygon fill="#181818" points="459.19,84.07,466.2667,90.9198,463.8853,85.7887,469.0165,83.4073,459.19,84.07" style="stroke:#181818;stroke-width:1;"/><text fill="#000000" font-family="sans-serif" font-size="13" lengthAdjust="spacing" textLength="69.7798" x="540.56" y="154.0669">«includes»</text></g><!--link UC5 to UC15--><g class="link" data-entity-1="UC5" data-entity-2="UC15" data-source-line="59" data-uid="lnk43" id="link_UC5_UC15"><path d="M457.6,774 C515.84,774 581.12,774 636.08,774" fill="none" id="UC5-to-UC15" style="stroke:#181818;stroke-width:1;stroke-dasharray:7.0,7.0;"/><polygon fill="#181818" points="642.08,774,633.08,770,637.08,774,633.08,778,642.08,774" style="stroke:#181818;stroke-width:1;"/><text fill="#000000" font-family="sans-serif" font-size="13" lengthAdjust="spacing" textLength="67.958" x="541.56" y="770.0669">«extends»</text></g><!--SRC=[VLJRJXin57pVhpXAfG8Ff0H82XL2MfA08a65ii2xOv_iMlNQaI-q4UfhFw2Vs2-fxRrIhQeeqjYUsJC-5mlSMh0ADCyB2unhf9OhcIG7iC0jbmWxpKkYzq2eLTh0eNBMS8PWziPY2Hlb9FFdHqaamBD1NSFHwZQ5b9LSScCryLiZ80RyRarOunOrOaD_T1l1QVn29FfrpqSTZqW6pY1GOj0amIwHkS0gMBPJsXh88dK4Rqa2S00tdjffu534ksw4moD_xW_2FepMc7kVg6E8rDa2fUMKMEmSFSydy25TB2wMixxoWKYI8zmZoPqF4FHFI4fJQqw7D6iCNk61M5h0yjN7QkXdG_GNZj_XdhyYt94IOK4igUddG_JCRGpLV8EXjb-LvTjm4r_O9iXqs1F54A8obGhKhQdP4FzH6GkPefm8U4362SoLjFugjUZpa6Ykoj9JGCd_II-6f7SeKOU2n4IaaeYzhr1ZyN98ifHRfId2ZMCvMlW86IsGES5b3cidi15FJeOBowNrVyYGEeqGl3jPfnBc1P4IHVE5uTPmml8GpVcBhlmDzPPuEocbQDhOWmroItnorsXslcW8Jxp4XjurI6plbQJ2CMJm2PO_V0e3x7Lxhid-NP-_4C5PoE9S8mizJaJhn3VJCWs_lY3spnuoIxvXeGH3tVAdBVzd6DKq3lAVNx_3o4G3e55KZLVmdKd29C7nSP3syBI7PttEQNznbYHXnkFYj8Fd7RpiuEIaXoSzt5E6BzPFKBLnzdvv_duv-NVjvVw9QhWjd7Pmra4Vs2TeE2rmo6LyKzldx2W9JytLU5mLvGkChgvuLMTpVJrAmW2FnzTL2U8fnjB7mxy0]--></g></svg>