<svg xmlns="http://www.w3.org/2000/svg" xmlns:xlink="http://www.w3.org/1999/xlink" contentStyleType="text/css" data-diagram-type="DESCRIPTION" height="439px" preserveAspectRatio="none" style="width:762px;height:439px;background:#FFFFFF;" version="1.1" viewBox="0 0 762 439" width="762px" zoomAndPan="magnify"><defs/><g><!--cluster Football Management System--><g class="cluster" data-entity="Football Management System" data-source-line="10" data-uid="ent0006" id="cluster_Football Management System"><rect fill="none" height="387" rx="2.5" ry="2.5" style="stroke:#181818;stroke-width:1;" width="596" x="160" y="7"/><text fill="#000000" font-family="sans-serif" font-size="14" font-weight="bold" lengthAdjust="spacing" textLength="235.6758" x="340.1621" y="21.9951">Football Management System</text></g><!--entity UC1--><g class="entity" data-entity="UC1" data-source-line="13" data-uid="ent0007" id="entity_UC1"><ellipse cx="278.4095" cy="61.9819" fill="#ADD8E6" rx="85.4095" ry="19.4819" style="stroke:#181818;stroke-width:0.5;"/><text fill="#000000" font-family="sans-serif" font-size="14" lengthAdjust="spacing" textLength="143.2676" x="206.7757" y="66.6303">Define league policy</text></g><!--entity UC2--><g class="entity" data-entity="UC2" data-source-line="14" data-uid="ent0008" id="entity_UC2"><ellipse cx="278.3861" cy="139.8772" fill="#ADD8E6" rx="102.3861" ry="22.8772" style="stroke:#181818;stroke-width:0.5;"/><text fill="#000000" font-family="sans-serif" font-size="14" lengthAdjust="spacing" textLength="181.3027" x="187.7347" y="144.5257">Generate match schedule</text></g><!--entity UC3--><g class="entity" data-entity="UC3" data-source-line="15" data-uid="ent0009" id="entity_UC3"><ellipse cx="278.4593" cy="214.9919" fill="#ADD8E6" rx="72.9593" ry="16.9919" style="stroke:#181818;stroke-width:0.5;"/><text fill="#000000" font-family="sans-serif" font-size="14" lengthAdjust="spacing" textLength="113.7432" x="221.5877" y="219.6403">Log game event</text></g><!--entity UC4--><g class="entity" data-entity="UC4" data-source-line="16" data-uid="ent0010" id="entity_UC4"><ellipse cx="278.5759" cy="284.8152" fill="#ADD8E6" rx="77.0759" ry="17.8152" style="stroke:#181818;stroke-width:0.5;"/><text fill="#000000" font-family="sans-serif" font-size="14" lengthAdjust="spacing" textLength="123.7305" x="216.7106" y="289.4636">View live updates</text></g><!--entity UC5--><g class="entity" data-entity="UC5" data-source-line="17" data-uid="ent0011" id="entity_UC5"><ellipse cx="278.5065" cy="357.9013" fill="#ADD8E6" rx="87.5065" ry="19.9013" style="stroke:#181818;stroke-width:0.5;"/><text fill="#000000" font-family="sans-serif" font-size="14" lengthAdjust="spacing" textLength="148.0732" x="204.4699" y="362.5497">Monitor team budget</text></g><!--entity UC6--><g class="entity" data-entity="UC6" data-source-line="20" data-uid="ent0012" id="entity_UC6"><ellipse cx="626.0721" cy="250.0144" fill="#EAEAEA" rx="108.0721" ry="24.0144" style="stroke:#181818;stroke-width:0.5;"/><text fill="#000000" font-family="sans-serif" font-size="14" lengthAdjust="spacing" textLength="193.7031" x="529.2206" y="254.6629">Send real&#8209;time notifications</text></g><!--entity UC7--><g class="entity" data-entity="UC7" data-source-line="21" data-uid="ent0013" id="entity_UC7"><ellipse cx="626.2044" cy="102.2409" fill="#EAEAEA" rx="114.2044" ry="25.2409" style="stroke:#181818;stroke-width:0.5;"/><text fill="#000000" font-family="sans-serif" font-size="14" lengthAdjust="spacing" textLength="206.9443" x="522.7322" y="106.8893">Validate schedule constraints</text></g><!--entity IFA--><g class="entity" data-entity="IFA" data-source-line="4" data-uid="ent0002" id="entity_IFA"><ellipse cx="59.5" cy="33.5" fill="#F1F1F1" rx="8" ry="8" style="stroke:#181818;stroke-width:0.5;"/><path d="M59.5,41.5 L59.5,68.5 M46.5,49.5 L72.5,49.5 M59.5,68.5 L46.5,83.5 M59.5,68.5 L72.5,83.5" fill="none" style="stroke:#181818;stroke-width:0.5;"/><text fill="#000000" font-family="sans-serif" font-size="14" lengthAdjust="spacing" textLength="21.7588" x="48.6206" y="97.9951">IFA</text></g><!--entity Referee--><g class="entity" data-entity="Referee" data-source-line="5" data-uid="ent0003" id="entity_Referee"><ellipse cx="59.4326" cy="144.5" fill="#F1F1F1" rx="8" ry="8" style="stroke:#181818;stroke-width:0.5;"/><path d="M59.4326,152.5 L59.4326,179.5 M46.4326,160.5 L72.4326,160.5 M59.4326,179.5 L46.4326,194.5 M59.4326,179.5 L72.4326,194.5" fill="none" style="stroke:#181818;stroke-width:0.5;"/><text fill="#000000" font-family="sans-serif" font-size="14" lengthAdjust="spacing" textLength="54.8652" x="32" y="208.9951">Referee</text></g><!--entity Fan--><g class="entity" data-entity="Fan" data-source-line="6" data-uid="ent0004" id="entity_Fan"><ellipse cx="59.5" cy="255.5" fill="#F1F1F1" rx="8" ry="8" style="stroke:#181818;stroke-width:0.5;"/><path d="M59.5,263.5 L59.5,290.5 M46.5,271.5 L72.5,271.5 M59.5,290.5 L46.5,305.5 M59.5,290.5 L72.5,305.5" fill="none" style="stroke:#181818;stroke-width:0.5;"/><text fill="#000000" font-family="sans-serif" font-size="14" lengthAdjust="spacing" textLength="25.5049" x="46.7476" y="319.9951">Fan</text></g><!--entity Team manager--><g class="entity" data-entity="Team manager" data-source-line="7" data-uid="ent0005" id="entity_Team manager"><ellipse cx="59.3784" cy="366.5" fill="#F1F1F1" rx="8" ry="8" style="stroke:#181818;stroke-width:0.5;"/><path d="M59.3784,374.5 L59.3784,401.5 M46.3784,382.5 L72.3784,382.5 M59.3784,401.5 L46.3784,416.5 M59.3784,401.5 L72.3784,416.5" fill="none" style="stroke:#181818;stroke-width:0.5;"/><text fill="#000000" font-family="sans-serif" font-size="14" lengthAdjust="spacing" textLength="106.7568" x="6" y="430.9951">Team manager</text></g><!--reverse link UC1 to UC7--><g class="link" data-entity-1="UC1" data-entity-2="UC7" data-source-line="24" data-uid="lnk14" id="link_UC1_UC7"><path d="M361.2802,71.4699 C411.0402,77.2299 470.7,84.14 524.76,90.39" fill="none" id="UC1-backto-UC7" style="stroke:#181818;stroke-width:1;stroke-dasharray:7,7;"/><polygon fill="#181818" points="355.32,70.78,363.8004,75.7884,360.2868,71.3549,364.7203,67.8414,355.32,70.78" style="stroke:#181818;stroke-width:1;"/><text fill="#000000" font-family="sans-serif" font-size="13" lengthAdjust="spacing" textLength="69.7798" x="412" y="74.0669">&#171;includes&#187;</text></g><!--reverse link UC2 to UC7--><g class="link" data-entity-1="UC2" data-entity-2="UC7" data-source-line="25" data-uid="lnk15" id="link_UC2_UC7"><path d="M385.871,136.1214 C418.511,134.3314 448.87,131.98 482,128 C501.42,125.67 522.18,122.37 541.7,118.89" fill="none" id="UC2-backto-UC7" style="stroke:#181818;stroke-width:1;stroke-dasharray:7,7;"/><polygon fill="#181818" points="379.88,136.45,389.0855,139.9512,384.8725,136.1762,388.6475,131.9632,379.88,136.45" style="stroke:#181818;stroke-width:1;"/><text fill="#000000" font-family="sans-serif" font-size="13" lengthAdjust="spacing" textLength="69.7798" x="412" y="124.0669">&#171;includes&#187;</text></g><!--link UC3 to UC6--><g class="link" data-entity-1="UC3" data-entity-2="UC6" data-source-line="26" data-uid="lnk16" id="link_UC3_UC6"><path d="M345.71,221.71 C397.14,226.92 463.2805,233.6154 521.3405,239.4954" fill="none" id="UC3-to-UC6" style="stroke:#181818;stroke-width:1;stroke-dasharray:7,7;"/><polygon fill="#181818" points="527.31,240.1,518.7588,235.2135,522.3354,239.5962,517.9528,243.1728,527.31,240.1" style="stroke:#181818;stroke-width:1;"/><text fill="#000000" font-family="sans-serif" font-size="13" lengthAdjust="spacing" textLength="67.958" x="413" y="225.0669">&#171;extends&#187;</text></g><!--link UC4 to UC6--><g class="link" data-entity-1="UC4" data-entity-2="UC6" data-source-line="27" data-uid="lnk17" id="link_UC4_UC6"><path d="M349.42,277.92 C400.59,272.73 464.7105,266.2344 521.4005,260.4944" fill="none" id="UC4-to-UC6" style="stroke:#181818;stroke-width:1;stroke-dasharray:7,7;"/><polygon fill="#181818" points="527.37,259.89,518.0128,256.817,522.3954,260.3937,518.8187,264.7763,527.37,259.89" style="stroke:#181818;stroke-width:1;"/><text fill="#000000" font-family="sans-serif" font-size="13" lengthAdjust="spacing" textLength="67.958" x="413" y="262.0669">&#171;extends&#187;</text></g><!--link IFA to UC1--><g class="link" data-entity-1="IFA" data-entity-2="UC1" data-source-line="31" data-uid="lnk18" id="link_IFA_UC1"><path d="M73.1,62.94 C96.31,62.83 147.56,62.6 192.94,62.39" fill="none" id="IFA-UC1" style="stroke:#181818;stroke-width:1;"/></g><!--link IFA to UC2--><g class="link" data-entity-1="IFA" data-entity-2="UC2" data-source-line="32" data-uid="lnk19" id="link_IFA_UC2"><path d="M73.14,68.25 C90.71,75.48 123.57,88.77 152,99 C173.35,106.68 196.96,114.55 217.88,121.32" fill="none" id="IFA-UC2" style="stroke:#181818;stroke-width:1;"/></g><!--link Referee to UC3--><g class="link" data-entity-1="Referee" data-entity-2="UC3" data-source-line="33" data-uid="lnk20" id="link_Referee_UC3"><path d="M87.11,179.03 C120.27,185.29 177.83,196.17 221,204.32" fill="none" id="Referee-UC3" style="stroke:#181818;stroke-width:1;"/></g><!--link Fan to UC4--><g class="link" data-entity-1="Fan" data-entity-2="UC4" data-source-line="34" data-uid="lnk21" id="link_Fan_UC4"><path d="M73.1,285 C97.75,285 154.06,285 201.35,285" fill="none" id="Fan-UC4" style="stroke:#181818;stroke-width:1;"/></g><!--link Team manager to UC5--><g class="link" data-entity-1="Team manager" data-entity-2="UC5" data-source-line="35" data-uid="lnk22" id="link_Team manager_UC5"><path d="M113.03,386.8 C141.75,381.77 177.69,375.48 208.63,370.06" fill="none" id="Team manager-UC5" style="stroke:#181818;stroke-width:1;"/></g><!--SRC=[XLF1Rjim3BthAmZlqEsG34lIhXY20DxI30FMIxlrpiYCJK2M0adk5XG5zWlxnNt995bsqoB3x8jilaS-Ff6ATXwy0Sjruw5YIzApqKASmPfsh0dsbbkq1q3fZNNmO3hlk29m1-UfXQtfT1NYZo81uCkcpASRsf4bobyRrFbKV2DieKMDDTdYg5BEYBg2pX58TEH458IwLWJ5nXY_HQNWEd5RqXvk4wU01o4WF6VmCR2UwF1Q6XLglYhNwykhYpS95A8n24MkgmZhBZHg5Cj30UZW-wTt0-KvupDfikWfoFUo0ISRgZf5cJGxJVfgQgYn9Q3x83bZvwUnTqm_GF5zw65VXK8kmnUduTT6S_JKHqktNLNJaFzy96HZoghYUBMeWBLKNRZ2jq0_FHtRFVfrLSRtXL-t4Mi9rPzVlps7XhJnl6E9CU-Wz68WlsWC5SU6Hiz01ewtoDeFrFSZDMk-8TNdRdZlWkmqUBuPHsKSZeIFjxQSJbEY3r0ibxbFjreL6J3x7s0Eq-agTP40lJz7ySK_uuznaiiuuPF1pg3lIBy8gm6JIPJvT9o9l2Rzvro4FUcF2_5yKVg_vty1]--></g></svg>