<svg xmlns="http://www.w3.org/2000/svg" xmlns:xlink="http://www.w3.org/1999/xlink" contentstyletype="text/css" data-diagram-type="DESCRIPTION" height="575px" preserveAspectRatio="none" style="width:703px;height:575px;background:#FFFFFF;" version="1.1" viewBox="0 0 703 575" width="703px" zoomAndPan="magnify" transform="scale(0.8260869565217391)" transform-origin="0 0"><defs/><g><!--cluster UHOPE EMR System--><g class="cluster" data-entity="UHOPE EMR System" data-source-line="9" data-uid="ent0005" id="cluster_UHOPE EMR System"><rect fill="none" height="562" rx="2.5" ry="2.5" style="stroke:#181818;stroke-width:1;" width="595.55" x="102.38" y="7"/><text fill="#000000" font-family="sans-serif" font-size="14" font-weight="bold" lengthAdjust="spacing" textLength="157.1514" x="321.5793" y="21.9951">UHOPE EMR System</text></g><g class="entity" data-entity="UC1" data-source-line="11" data-uid="ent0006" id="entity_UC1"><ellipse cx="225.5103" cy="62.9961" fill="#ADD8E6" rx="91.8303" ry="20.7661" style="stroke:#181818;stroke-width:0.5;"/><text fill="#000000" font-family="sans-serif" font-size="14" lengthAdjust="spacing" textLength="145.8721" x="152.5743" y="65.8427">View Medical History</text></g><g class="entity" data-entity="UC2" data-source-line="12" data-uid="ent0007" id="entity_UC2"><ellipse cx="225.5105" cy="297.0041" fill="#ADD8E6" rx="95.4205" ry="21.4841" style="stroke:#181818;stroke-width:0.5;"/><text fill="#000000" font-family="sans-serif" font-size="14" lengthAdjust="spacing" textLength="153.9111" x="148.5549" y="299.8508">Enter Edit Patient Info</text></g><g class="entity" data-entity="UC3" data-source-line="13" data-uid="ent0008" id="entity_UC3"><ellipse cx="225.5059" cy="375.0032" fill="#ADD8E6" rx="97.9659" ry="21.9932" style="stroke:#181818;stroke-width:0.5;"/><text fill="#000000" font-family="sans-serif" font-size="14" lengthAdjust="spacing" textLength="159.5645" x="145.7236" y="377.8499">Schedule Appointment</text></g><g class="entity" data-entity="UC4" data-source-line="14" data-uid="ent0009" id="entity_UC4"><ellipse cx="225.5138" cy="453.0008" fill="#ADD8E6" rx="93.9538" ry="21.1908" style="stroke:#181818;stroke-width:0.5;"/><text fill="#000000" font-family="sans-serif" font-size="14" lengthAdjust="spacing" textLength="150.6367" x="150.1955" y="455.8474">Generate Billing Data</text></g><g class="entity" data-entity="UC5" data-source-line="15" data-uid="ent0010" id="entity_UC5"><ellipse cx="225.5054" cy="142.9971" fill="#ADD8E6" rx="107.1354" ry="23.8271" style="stroke:#181818;stroke-width:0.5;"/><text fill="#000000" font-family="sans-serif" font-size="14" lengthAdjust="spacing" textLength="179.6689" x="135.6709" y="145.8438">Analyze Aggregated Data</text></g><g class="entity" data-entity="UC6" data-source-line="16" data-uid="ent0011" id="entity_UC6"><ellipse cx="225.5082" cy="531.0016" fill="#ADD8E6" rx="96.9082" ry="21.7816" style="stroke:#181818;stroke-width:0.5;"/><text fill="#000000" font-family="sans-serif" font-size="14" lengthAdjust="spacing" textLength="157.2197" x="146.8984" y="533.8483">Upload Measurements</text></g><g class="entity" data-entity="UC7" data-source-line="17" data-uid="ent0012" id="entity_UC7"><ellipse cx="225.506" cy="221.0032" fill="#ADD8E6" rx="83.316" ry="19.0632" style="stroke:#181818;stroke-width:0.5;"/><text fill="#000000" font-family="sans-serif" font-size="14" lengthAdjust="spacing" textLength="126.417" x="161.8109" y="224.0152">Authenticate User</text></g><g class="entity" data-entity="UC8" data-source-line="20" data-uid="ent0013" id="entity_UC8"><ellipse cx="572.7893" cy="372.9979" fill="#EAEAEA" rx="109.1393" ry="24.2279" style="stroke:#181818;stroke-width:0.5;"/><text fill="#000000" font-family="sans-serif" font-size="14" lengthAdjust="spacing" textLength="184.0166" x="480.781" y="375.8445">Validate Appointment Slot</text></g><g class="entity" data-entity="UC9" data-source-line="21" data-uid="ent0014" id="entity_UC9"><ellipse cx="572.7887" cy="454.9997" fill="#EAEAEA" rx="101.7487" ry="22.7497" style="stroke:#181818;stroke-width:0.5;"/><text fill="#000000" font-family="sans-serif" font-size="14" lengthAdjust="spacing" textLength="167.9043" x="488.8366" y="457.8464">Notify Patient of Invoice</text></g><!--entity Patient--><g class="entity" data-entity="Patient" data-source-line="4" data-uid="ent0002" id="entity_Patient"><ellipse cx="30.688" cy="64.35" fill="#F1F1F1" rx="8" ry="8" style="stroke:#181818;stroke-width:0.5;"/><path d="M30.688,72.35 L30.688,99.35 M17.688,80.35 L43.688,80.35 M30.688,99.35 L17.688,114.35 M30.688,99.35 L43.688,114.35" fill="none" style="stroke:#181818;stroke-width:0.5;"/><text fill="#000000" font-family="sans-serif" font-size="14" lengthAdjust="spacing" textLength="49.376" x="6" y="128.8451">Patient</text></g><!--entity Staff--><g class="entity" data-entity="Staff" data-source-line="5" data-uid="ent0003" id="entity_Staff"><ellipse cx="30.6863" cy="267.35" fill="#F1F1F1" rx="8" ry="8" style="stroke:#181818;stroke-width:0.5;"/><path d="M30.6863,275.35 L30.6863,302.35 M17.6863,283.35 L43.6863,283.35 M30.6863,302.35 L17.6863,317.35 M30.6863,302.35 L43.6863,317.35" fill="none" style="stroke:#181818;stroke-width:0.5;"/><text fill="#000000" font-family="sans-serif" font-size="14" lengthAdjust="spacing" textLength="32.8125" x="14.28" y="331.8451">Staff</text></g><!--entity Nurse--><g class="entity" data-entity="Nurse" data-source-line="6" data-uid="ent0004" id="entity_Nurse"><ellipse cx="30.6844" cy="449.35" fill="#F1F1F1" rx="8" ry="8" style="stroke:#181818;stroke-width:0.5;"/><path d="M30.6844,457.35 L30.6844,484.35 M17.6844,465.35 L43.6844,465.35 M30.6844,484.35 L17.6844,499.35 M30.6844,484.35 L43.6844,499.35" fill="none" style="stroke:#181818;stroke-width:0.5;"/><text fill="#000000" font-family="sans-serif" font-size="14" lengthAdjust="spacing" textLength="41.0088" x="10.18" y="513.8451">Nurse</text></g><!--link Patient to UC1--><g class="link" data-entity-1="Patient" data-entity-2="UC1" data-source-line="25" data-uid="lnk15" id="link_Patient_UC1"><path d="M55.72,90.14 C79.24,86.35 116.31,80.4 149.73,75.02" fill="none" id="Patient-UC1" style="stroke:#181818;stroke-width:1;"/></g><!--link Patient to UC7--><g class="link" data-entity-1="Patient" data-entity-2="UC7" data-source-line="26" data-uid="lnk16" id="link_Patient_UC7"><path d="M50.48,132.43 C61.09,150.47 75.93,170.84 94.38,184 C112.16,196.69 134.19,205.04 155.05,210.53" fill="none" id="Patient-UC7" style="stroke:#181818;stroke-width:1;"/></g><!--link Staff to UC2--><g class="link" data-entity-1="Staff" data-entity-2="UC2" data-source-line="27" data-uid="lnk17" id="link_Staff_UC2"><path d="M47.47,297 C65.91,297 97.96,297 129.77,297" fill="none" id="Staff-UC2" style="stroke:#181818;stroke-width:1;"/></g><!--link Staff to UC3--><g class="link" data-entity-1="Staff" data-entity-2="UC3" data-source-line="28" data-uid="lnk18" id="link_Staff_UC3"><path d="M47.52,308.5 C59.82,317.02 77.55,328.41 94.38,336 C114.48,345.07 137.25,352.72 158.07,358.77" fill="none" id="Staff-UC3" style="stroke:#181818;stroke-width:1;"/></g><!--link Staff to UC4--><g class="link" data-entity-1="Staff" data-entity-2="UC4" data-source-line="29" data-uid="lnk19" id="link_Staff_UC4"><path d="M43.56,335.56 C53.34,361.22 69.66,393.81 94.38,414 C109.72,426.54 129,435.04 147.99,440.82" fill="none" id="Staff-UC4" style="stroke:#181818;stroke-width:1;"/></g><!--link Staff to UC5--><g class="link" data-entity-1="Staff" data-entity-2="UC5" data-source-line="30" data-uid="lnk20" id="link_Staff_UC5"><path d="M44.52,258.51 C54.53,233.98 70.74,203.3 94.38,184 C108.32,172.61 125.45,164.37 142.66,158.42" fill="none" id="Staff-UC5" style="stroke:#181818;stroke-width:1;"/></g><!--link Staff to UC7--><g class="link" data-entity-1="Staff" data-entity-2="UC7" data-source-line="31" data-uid="lnk21" id="link_Staff_UC7"><path d="M47.49,285.43 C59.77,276.88 77.5,265.47 94.38,258 C116.5,248.21 141.89,240.3 164.33,234.36" fill="none" id="Staff-UC7" style="stroke:#181818;stroke-width:1;"/></g><!--link Nurse to UC6--><g class="link" data-entity-1="Nurse" data-entity-2="UC6" data-source-line="32" data-uid="lnk22" id="link_Nurse_UC6"><path d="M51.6,484.37 C77.48,491.35 123.9,503.87 162.13,514.18" fill="none" id="Nurse-UC6" style="stroke:#181818;stroke-width:1;"/></g><!--link Nurse to UC7--><g class="link" data-entity-1="Nurse" data-entity-2="UC7" data-source-line="33" data-uid="lnk23" id="link_Nurse_UC7"><path d="M40.47,440.44 C54.41,380.65 81.34,271.05 94.38,258 C109.07,243.3 129.16,234.34 149.15,228.91" fill="none" id="Nurse-UC7" style="stroke:#181818;stroke-width:1;"/></g><!--reverse link UC3 to UC8--><g class="link" data-entity-1="UC3" data-entity-2="UC8" data-source-line="37" data-uid="lnk24" id="link_UC3_UC8"><path d="M329.6099,374.4055 C373.0899,374.1555 418.54,373.89 463.28,373.63" fill="none" id="UC3-backto-UC8" style="stroke:#181818;stroke-width:1;stroke-dasharray:7.0,7.0;"/><polygon fill="#181818" points="323.61,374.44,332.6328,378.3882,328.6099,374.4113,332.5869,370.3883,323.61,374.44" style="stroke:#181818;stroke-width:1;"/><text fill="#000000" font-family="sans-serif" font-size="13" lengthAdjust="spacing" textLength="69.7798" x="363.65" y="370.0669">«includes»</text></g><!--link UC4 to UC9--><g class="link" data-entity-1="UC4" data-entity-2="UC9" data-source-line="40" data-uid="lnk25" id="link_UC4_UC9"><path d="M319.49,453.54 C366.23,453.81 416.9501,454.1061 464.7601,454.3761" fill="none" id="UC4-to-UC9" style="stroke:#181818;stroke-width:1;stroke-dasharray:7.0,7.0;"/><polygon fill="#181818" points="470.76,454.41,461.7827,450.3592,465.7601,454.3818,461.7376,458.3591,470.76,454.41" style="stroke:#181818;stroke-width:1;"/><text fill="#000000" font-family="sans-serif" font-size="13" lengthAdjust="spacing" textLength="67.958" x="364.65" y="450.0669">«extends»</text></g><!--SRC=[TPFHRzem4CRVyrUSqWVM1pALjj1D22ajqRg7icg8lRln9LWoDhATRTcq_ttdn8d2be2GEEL-NyxtVPPOE70QZ2YF3hWmc3kXLHJDvlCvfBdJni8xNJahE8AjhSCJlEbASMRgQw2cYFacU6LEe7AXsZjM5E7_hZ8MW-2-5M2Amy4YF36B92_KjBeVYAbI8iI7vo-l6MGlNuDC3ByZeCyC7aa7AlhbhQ1iJlCcAxnkEkYHVmBnDu4_u0Mvo9c4Ps5flZe6Pk7mT0DNwNRxa2qlYKmvD91nuReZmcTLw00jng5zVaHUqSpf-Qo5SYV20d4xJdn2XOOvX4SXfL0bR9bZ0RaRHrB5PFsBtb6M1ajY-H2w7uSEPwaPfnKmMndqSza0B2VUKhaZTT72Q3Zop8JsLTyUFDZHPeNAPKLElWVywP1C_i-Jqh3wNq-O5Doh3vO5UwcxZJt0LPRwxoMsqquKTM-ABiYNxrha6B0FFVPdc6QOzya3WvBvjDkZEDicRPqQTLCYBijLrAIwBHR3udPOt0sB-s6nYfghq1RBOR4A4qvCrbqGSWBw-z1UZndS930MjyuB2vFxZNmQrqdIxFWZnEjrnsmsCKq4YmH6SndSjJ3fGUHJcoIRneT6EY2jiZzhHl4WW0j6cJZvm_m5]--></g></svg>